<?xml version="1.0" encoding="utf-8"?>
<!-- Generator: Adobe Illustrator 25.3.1, SVG Export Plug-In . SVG Version: 6.00 Build 0)  -->
<svg version="1.1" id="Livello_1" xmlns="http://www.w3.org/2000/svg" xmlns:xlink="http://www.w3.org/1999/xlink" x="0px" y="0px"
	 viewBox="0 0 1000 1000" style="enable-background:new 0 0 1000 1000;" xml:space="preserve">
<style type="text/css">
	.st0{fill:#E84A24;}
</style>
<path class="st0" d="M984,706.8C819.2,532.7,698.6,323,633,92.6c-5.7-19.3-22.1-31.4-41.4-31.4H409.7c-19.3,0-35.7,13.6-41.4,31.4
	C302.7,323,182.1,532.7,17.3,706.8c-13.6,13.6-16.4,35.7-7.1,52.1l90.6,157.7c9.3,16.4,28.5,25,47.8,20.7
	c114.9-28.5,233.3-42.8,351-42.8s237.6,13.6,351,42.8c19.3,5.7,38.5-4.3,47.8-20.7L989,757.4C998.9,741,996.8,720.3,984,706.8z
	 M782.8,840.2l-639.2-137c-2.9-1.4-5.7-4.3-4.3-7.1c0-1.4,0-1.4,1.4-2.9L578,202.4c1.4-2.9,5.7-2.9,7.1,0l1.4,1.4l203.3,628.5
	c1.4,2.9-1.4,7.1-4.3,7.1C784.2,840.2,784.2,840.2,782.8,840.2z"/>
</svg>
