<svg id="LOGHI" xmlns="http://www.w3.org/2000/svg" viewBox="0 0 156.31 74.98"><defs><style>.cls-1{fill:#fff;}</style></defs><title>avio_logo_white</title><path class="cls-1" d="M400,368.76l-3,4a112.81,112.81,0,0,1,16.31-3c-.59-.1-1.22-.18-1.88-.23-3.87-.33-9.69-.7-11.47-.81" transform="translate(-347.29 -344.33)"/><path class="cls-1" d="M450.86,368.75c-1.79.11-7.61.48-11.47.81-.68.05-1.31.14-1.92.24a113.48,113.48,0,0,1,16.36,3Z" transform="translate(-347.29 -344.33)"/><path class="cls-1" d="M439.39,367.71c3.74.31,9.31.67,11.28.79l-13.58-18.32a14.49,14.49,0,0,0-11.52-5.85A103.79,103.79,0,0,0,427,357.76a13.54,13.54,0,0,0,.74,2.75l.12-.28,2.5-5.54L428.45,361c-.06.22-.11.45-.15.68a9,9,0,0,0,.73,1.16c2.2-.44,9.57-7.3,9.57-7.3s-6.58,6.94-7.47,9.43a15.71,15.71,0,0,0,8.26,2.71" transform="translate(-347.29 -344.33)"/><path class="cls-1" d="M413.81,350.18l-13.58,18.31c2-.12,7.54-.48,11.27-.79a18.59,18.59,0,0,0,6.11-1.45l-6.1-2.53,5.92,1.62a7.71,7.71,0,0,0,1.42.26,10.23,10.23,0,0,0,.91-.6c-.63-2.36-7.46-9.43-7.46-9.43s7.5,6.67,9.56,7.3a12.11,12.11,0,0,0,2-5.12,103.69,103.69,0,0,0,1.45-13.42,14.49,14.49,0,0,0-11.51,5.85" transform="translate(-347.29 -344.33)"/><path class="cls-1" d="M416.22,378.41c1.87-.14,3.74-.24,5.63-.29a30.5,30.5,0,0,0,.88-4.44c-2.77,1-6.51,4.73-6.51,4.73" transform="translate(-347.29 -344.33)"/><path class="cls-1" d="M389,383.59l-4.12,5.56h13.47l7-9.45A117.36,117.36,0,0,0,389,383.59" transform="translate(-347.29 -344.33)"/><path class="cls-1" d="M445.5,379.7l7,9.45H466l-4.12-5.56a117.5,117.5,0,0,0-16.36-3.89" transform="translate(-347.29 -344.33)"/><path class="cls-1" d="M425.11,373.06a22,22,0,0,0-2.65,5c1,0,2,0,3,0q4.67,0,9.22.35s-4.4-5.08-9.56-5.35" transform="translate(-347.29 -344.33)"/><path class="cls-1" d="M433.79,399.37a2.41,2.41,0,0,0-2.41,2.41V419.3a6.93,6.93,0,0,1,2.41-.34,6.63,6.63,0,0,1,2.4.34V401.78a2.4,2.4,0,0,0-2.4-2.41" transform="translate(-347.29 -344.33)"/><path class="cls-1" d="M412.31,413.44a2.06,2.06,0,0,1-3.32,0l-10.08-13.59h-5.85l12.54,16.91a6.29,6.29,0,0,0,10.1,0l12.54-16.91h-5.85Z" transform="translate(-347.29 -344.33)"/><path class="cls-1" d="M374.49,410.87l3.82-5.16a2.07,2.07,0,0,1,3.33,0l3.81,5.13a50.6,50.6,0,0,0-11,0m5.48-11a6.29,6.29,0,0,0-5.05,2.54L362.38,419.3h5.85l3.12-4.21a49.6,49.6,0,0,1,17.25,0l3.12,4.21h5.85L385,402.39a6.29,6.29,0,0,0-5.06-2.54" transform="translate(-347.29 -344.33)"/><path class="cls-1" d="M469.81,415.08H450.36c-3.22,0-4.66-2.76-4.66-5.5s1.44-5.51,4.66-5.51h19.45c3.22,0,4.66,2.76,4.66,5.51s-1.44,5.5-4.66,5.5m0-15.23H450.36c-5.37,0-8.88,4.35-8.88,9.73s3.51,9.72,8.88,9.72h19.45c5.37,0,8.88-4.35,8.88-9.72s-3.51-9.73-8.88-9.73" transform="translate(-347.29 -344.33)"/><path class="cls-1" d="M503.38,405.42a106.77,106.77,0,0,0-72.15-32.74,63.83,63.83,0,0,0,4.37,5.8c26.26,2.14,49.68,12.51,66.61,28a.91.91,0,0,0,.59.25.76.76,0,0,0,.8-.76.74.74,0,0,0-.22-.57" transform="translate(-347.29 -344.33)"/><path class="cls-1" d="M419.67,372.68a106.73,106.73,0,0,0-72.15,32.74.71.71,0,0,0-.23.57.77.77,0,0,0,.8.76.89.89,0,0,0,.59-.25c16.94-15.51,40.35-25.88,66.61-28a41.92,41.92,0,0,0,4.38-5.8" transform="translate(-347.29 -344.33)"/></svg>