<?xml version="1.0" encoding="UTF-8"?>
<svg width="282px" height="56px" viewBox="0 0 282 56" version="1.1" xmlns="http://www.w3.org/2000/svg" xmlns:xlink="http://www.w3.org/1999/xlink">
    <!-- Generator: sketchtool 64 (101010) - https://sketch.com -->
    <title>684EF13D-3FF5-4AA0-84A7-FC9A12B2A9CD@1.00x</title>
    <desc>Created with sketchtool.</desc>
    <defs>
        <polygon id="path-1" points="0 55.1611016 281.772058 55.1611016 281.772058 0.000183606557 0 0.000183606557"></polygon>
    </defs>
    <g id="Styleguide" stroke="none" stroke-width="1" fill="none" fill-rule="evenodd">
        <g transform="translate(-125.000000, -80.000000)" id="Logo-ColorFabb-Zwart">
            <g transform="translate(125.000000, 80.000000)">
                <g id="Group-13">
                    <path d="M15.1460128,55.0225705 C8.01402556,55.0225705 0,49.7622426 0,35.6438164 C0,21.5244721 8.01402556,16.3339148 15.1460128,16.3339148 C18.2705367,16.3339148 21.5986773,17.4410623 23.6357444,18.8943082 L22.5491885,20.9708984 C20.6481661,19.6562754 17.8633035,18.6868328 15.1460128,18.6868328 C9.30509904,18.6868328 2.64881789,22.9097836 2.64881789,35.6438164 C2.64881789,48.3778492 9.30509904,52.6687344 15.1460128,52.6687344 C17.8633035,52.6687344 20.6481661,51.7002098 22.5491885,50.3855869 L23.6357444,52.461259 C21.4626326,53.9842754 18.2705367,55.0225705 15.1460128,55.0225705" id="Fill-1" fill="#fff"></path>
                    <path d="M45.0276518,18.6872 C36.8091086,18.6872 32.9376901,26.0920525 32.9376901,35.6432656 C32.9376901,45.1953967 36.8091086,52.6691016 45.0276518,52.6691016 C53.2461949,52.6691016 57.1176134,45.1953967 57.1176134,35.6432656 C57.1176134,26.0920525 53.2461949,18.6872 45.0276518,18.6872 M45.0276518,55.0229377 C35.3144185,55.0229377 30.3564441,46.6486426 30.3564441,35.6432656 C30.3564441,24.6388066 35.3144185,16.334282 45.0276518,16.334282 C54.739984,16.334282 59.6988594,24.6388066 59.6988594,35.6432656 C59.6988594,46.6486426 54.739984,55.0229377 45.0276518,55.0229377" id="Fill-3" fill="#fff"></path>
                    <mask id="mask-2" fill="white">
                        <use xlink:href="#path-1"></use>
                    </mask>
                    <g id="Clip-6"></g>
                    <polygon id="Fill-5" fill="#fff" mask="url(#mask-2)" points="70.0179872 54.330282 72.5992332 54.330282 72.5992332 0.000183606557 70.0179872 0.000183606557"></polygon>
                    <path d="M97.5920914,18.6872 C89.3735482,18.6872 85.5021297,26.0920525 85.5021297,35.6432656 C85.5021297,45.1953967 89.3735482,52.6691016 97.5920914,52.6691016 C105.809734,52.6691016 109.681152,45.1953967 109.681152,35.6432656 C109.681152,26.0920525 105.809734,18.6872 97.5920914,18.6872 M97.5920914,55.0229377 C87.8788581,55.0229377 82.9208837,46.6486426 82.9208837,35.6432656 C82.9208837,24.6388066 87.8788581,16.334282 97.5920914,16.334282 C107.304424,16.334282 112.263299,24.6388066 112.263299,35.6432656 C112.263299,46.6486426 107.304424,55.0229377 97.5920914,55.0229377" id="Fill-7" fill="#fff" mask="url(#mask-2)"></path>
                    <path d="M136.23429,18.8248131 C135.827057,18.7559607 134.875645,18.6871082 133.925134,18.6871082 C130.665466,18.6871082 126.861619,19.3793049 124.756079,20.3487475 L124.756079,54.3297311 L122.174833,54.3297311 L122.174833,18.8945836 C125.027268,17.4413377 129.91767,16.3341902 134.129651,16.3341902 C135.01259,16.3341902 135.963102,16.4030426 136.846041,16.4728131 L136.23429,18.8248131 Z" id="Fill-8" fill="#fff" mask="url(#mask-2)"></path>
                    <polygon id="Fill-9" fill="#fff" mask="url(#mask-2)" points="153.212222 12.3892197 153.212222 24.9166951 168.154618 24.9166951 168.154618 32.9439738 153.212222 32.9439738 153.212222 54.3304656 143.83865 54.3304656 143.83865 4.22331803 169.715979 4.22331803 169.715979 12.3892197"></polygon>
                    <path d="M194.504049,36.3360131 C187.711723,36.6821115 181.735666,37.3045377 181.735666,42.9100459 C181.735666,46.4389639 184.451155,48.4467016 189.273985,48.4467016 C191.244381,48.4467016 193.553538,48.1006033 194.504049,47.6856525 L194.504049,36.3360131 Z M189.546075,55.1611934 C178.54357,55.1611934 173.041417,50.7316852 173.041417,43.1175213 C173.041417,32.943882 183.433072,30.9370623 194.504049,30.3146361 L194.504049,28.3766689 C194.504049,24.5007344 191.857033,23.0474885 187.644151,23.0474885 C184.180867,23.0474885 179.969787,24.1546361 177.388541,25.2627016 L175.078484,18.8943082 C178.136337,17.5796852 183.364599,16.1952918 188.664036,16.1952918 C198.036707,16.1952918 203.26587,19.9326033 203.26587,29.4838164 L203.26587,52.461259 C200.550381,53.915423 195.048228,55.1611934 189.546075,55.1611934 L189.546075,55.1611934 Z" id="Fill-10" fill="#fff" mask="url(#mask-2)"></path>
                    <path d="M225.403681,23.7391344 C223.704473,23.7391344 221.871023,24.1550033 220.716895,24.707659 L220.716895,46.993823 C221.599835,47.4096918 223.298141,47.7557902 224.996448,47.7557902 C230.294084,47.7557902 233.82494,43.6714623 233.82494,35.4348721 C233.82494,28.0997902 230.631943,23.7391344 225.403681,23.7391344 M224.451368,55.1615607 C219.357349,55.1615607 214.468748,53.9157902 211.479368,52.4616262 L211.479368,-0.000275409836 L220.716895,-0.000275409836 L220.716895,17.7875279 C222.346729,17.0264787 224.996448,16.5417574 227.16956,16.5417574 C236.678275,16.5417574 243.13094,23.2544131 243.13094,34.673823 C243.13094,48.6545443 236.134997,55.1615607 224.451368,55.1615607" id="Fill-11" fill="#fff" mask="url(#mask-2)"></path>
                    <path d="M264.044619,23.7391344 C262.347213,23.7391344 260.513762,24.1550033 259.357833,24.707659 L259.357833,46.993823 C260.240772,47.4096918 261.938178,47.7557902 263.637385,47.7557902 C268.935021,47.7557902 272.467679,43.6714623 272.467679,35.4348721 C272.467679,28.0997902 269.274682,23.7391344 264.044619,23.7391344 M263.094107,55.1615607 C258.000088,55.1615607 253.109686,53.9157902 250.122107,52.4616262 L250.122107,-0.000275409836 L259.357833,-0.000275409836 L259.357833,17.7875279 C260.989468,17.0264787 263.637385,16.5417574 265.810497,16.5417574 C275.319213,16.5417574 281.771877,23.2544131 281.771877,34.673823 C281.771877,48.6545443 274.777737,55.1615607 263.094107,55.1615607" id="Fill-12" fill="#fff" mask="url(#mask-2)"></path>
                </g>
            </g>
        </g>
    </g>
</svg>
