<?xml version="1.0" encoding="utf-8"?>
<!-- Generator: Adobe Illustrator 25.2.1, SVG Export Plug-In . SVG Version: 6.00 Build 0)  -->
<svg version="1.1" id="Art" xmlns="http://www.w3.org/2000/svg" xmlns:xlink="http://www.w3.org/1999/xlink" x="0px" y="0px"
	 viewBox="0 0 182 28" style="enable-background:new 0 0 182 28;" xml:space="preserve">
<path style="fill:#141f90;" d="M30,26.9h6.1V10.7c0-3.8-0.9-5.7-1.4-6.6C33.3,1.5,30.5,0,27.3,0c-2.3,0-5.6,0.7-7.8,3.9
	C17.9,1.3,15.4,0,12.6,0c-2,0-4.4,0.6-6.5,3.1L4.2,0.7H0v26.2h6.1V13.4c0-2.2,0.1-4.5,1.2-6c0.8-1.1,2.1-1.9,3.6-1.9
	c2.2,0,3.1,1.3,3.5,2.3c0.2,0.6,0.6,1.7,0.6,4.7v14.4h6.1V13.4c0-2.2,0.1-4.5,1.2-6c0.8-1.1,2.1-1.9,3.6-1.9c2.2,0,3.1,1.3,3.5,2.3
	c0.2,0.6,0.6,1.7,0.6,4.7V26.9z M61.3,14.2c0,5.5-3.6,8.3-7.5,8.3c-4.5,0-7.3-3.8-7.3-8.4c0-4.7,2.9-8.4,7.3-8.4
	C57.7,5.7,61.3,8.4,61.3,14.2 M60.9,27.2h6.2V14v0v0v0l0,0c0-1.3-0.2-2.5-0.4-3.7c-0.4-2.2-1.3-4.6-3.3-6.6
	c-1.1-1.1-2.8-2.3-5.1-2.9c-1.3-0.4-2.6-0.6-4-0.6c-0.3,0-0.6,0-0.9,0c-0.1,0-0.2,0-0.3,0c-0.9,0-1.9,0.1-2.7,0.3
	C49,0.7,47.7,1.2,46.4,2v0c-3.7,2.2-6.2,6.4-6.2,12c0,7.2,4.6,14,12.8,14c1.9,0,5.2-0.4,7.9-3.6V27.2z M98.5,27.2L88.1,14.1
	L98.5,0.9h-7.3l-6.8,8.5l-6.8-8.5h-7.3l10.4,13.2L70.4,27.2h7.4l6.7-8.4l6.6,8.4H98.5z M106.4,10.5c0.3-1.3,1-2.6,1.9-3.4
	c0.8-0.8,2.2-1.7,4.3-1.7c2,0,3.3,0.7,4.1,1.5c0.9,0.9,1.6,2.1,1.9,3.6H106.4z M105.9,15.5h18.9v-0.7c0-2.7-0.3-7.6-3.7-11.1
	c-1.6-1.6-4.3-3.4-8.5-3.4c-3.8,0-6.6,1.4-8.8,3.6c-2.8,2.8-4.2,6.7-4.2,10.8c0,3.9,1.4,7.6,3.9,10c2.5,2.5,5.4,3.4,8.9,3.4
	c2.8,0,5.6-0.6,7.8-2c1.1-0.7,2.2-1.7,3.1-2.9l-3.8-4.8c-0.6,1-1.4,2.1-2.4,2.9c-1.3,0.9-2.5,1.3-4.2,1.3c-1.5,0-3.3-0.2-4.7-1.7
	C106.9,19.5,106.1,17.4,105.9,15.5 M149.6,14.1c0,5.1-3,8.4-7.8,8.4c-4.8,0-7.8-3.3-7.8-8.4c0-6,4-8.4,7.8-8.4
	C145.6,5.7,149.6,8.1,149.6,14.1 M155.9,14.1c0-8.1-6.1-13.9-14.1-13.9c-8,0-14.1,5.7-14.1,13.9c0,8.1,6.1,13.9,14.1,13.9
	C149.7,28,155.9,22.1,155.9,14.1 M182,26.9V10.8c0-4-0.6-5.8-1.6-7.3c-0.8-1.1-2.9-3.5-7.8-3.5c-1.5,0-4.5,0.2-7.1,3.1l-1.9-2.4
	h-4.2v26.2h6.1V14.3c0-8.5,2.8-8.8,5.6-8.8c2.3,0,4.8,0.2,4.8,6.8v14.6H182z"/>
</svg>
