<?xml version="1.0" encoding="UTF-8"?><svg id="Ebene_1" xmlns="http://www.w3.org/2000/svg" width="494.4" height="282.15" viewBox="0 0 494.4 282.15"><g id="Ebene_2"><g><g><path d="M145.08,110.38c-52.21,15.96-112.3,29.4-117.45,30.54-8.02-.76-17.14-1.86-17.34-1.88-.89-.07-1.62-.15-2.24-.24l-7.03,1.58c.98,1.88,3.69,2.87,8.83,3.25,.1,0,9.55,1.15,17.72,1.91l.36,.03,.35-.08c.52-.11,43.28-9.56,88.78-22.18l75.19-30.1c-38.96,14.92-45.67,16.81-46.69,17.05l-.48,.12Z" fill="#878787" stroke="#878787" stroke-miterlimit="10"/><path d="M320.88,95.69c.28,1.01,1.22,1.69,1.24,1.69,2.24,1.41,3.8,2.16,4.28,2.38,.89,.21,1.3,.14,1.42,.12l.06-.02c2.47-1.02,4.14-2.23,4.16-2.24l.34-.21c4.49-2.21,14.25-6.02,20.11-8.26-10.16,3.31-21.91,8.5-24.22,9.53-1.47-.05-4.43-1.76-6.11-2.99-.46-.55-.4-1.27-.18-1.92h-.02c-.63,.4-.96,1.4-1.08,1.92Z" fill="#878787" stroke="#878787" stroke-miterlimit="10"/><path d="M295.59,29.11c-15.79,5.89-32.12,11.98-60.76,22.33-3.94-1.43-21.23-7.08-49.38-7.62,0,0-.56-.01-1.55-.01-15.48,0-34.46,1.58-36.95,9.09-1.66,5.02,4.23,9.41,6.17,10.85,4.7,3.5,13.26,6.37,26.63,8.9-20.98,7.86-82.33,30.58-169.48,60.31l-8.22,3.08-.33,.31c-.46,.43-.9,1.1-1.06,1.9L194.92,70.49l-6.06-.95c-17.26-2.71-28.05-5.82-32.98-9.49-3.8-2.83-4.84-4.79-4.54-5.69,.23-.7,1.07-1.39,2.44-2.05,8.23,2.14,32.81,6.75,41.15,7.25,0,0,8.46-3.96,15.18-9.12,15.26,2.25,23.73,5.56,23.85,5.61l.82,.33,.83-.3c29.17-10.54,45.66-16.69,61.61-22.64,7.98-2.98,15.8-5.89,24.95-9.26L374.05,.47c-40.19,14.36-58.81,21.31-78.46,28.64Z" fill="#878787" stroke="#878787" stroke-miterlimit="10"/><path d="M319.26,90.03c.35-.35,1.01-.92,2.14-1.7-74.28-9.86-86.49-10.63-88.47-10.63-.45,0-.56,.04-.56,.04l-.47,.13c-2.55,1-5.01,1.96-7.41,2.89l-7.94,5.7,7.66-.63c2.92-1.14,5.91-2.31,8.98-3.5,2.18,.06,14.76,.94,84.01,10.11,.45-.87,1.11-1.74,2.06-2.41Z" fill="#878787" stroke="#878787" stroke-miterlimit="10"/><path d="M329.52,103.18l-.29,.05c-.29,.05-.58,.07-.9,.07-3.56,0-8.2-3.35-9.1-4.02l-.25-.21c-2.06-2.05-2.1-4.52-1.45-6.59-.12-.02-.23-.03-.34-.05-.75,1.43-.93,2.8-.96,3.04l-.03,.28,.04,.28c.44,3.2,3,4.99,3.34,5.22,3.12,1.97,5.07,2.8,5.16,2.84l.32,.11c.86,.22,1.68,.34,2.42,.34,1.1,0,1.83-.25,2.21-.42,2.5-1.04,4.31-2.23,4.88-2.62,4.39-2.13,13.96-5.87,19.64-8.05-8.73,2.84-19.5,7.4-24.42,9.62l-.27,.11Z" fill="#878787" stroke="#878787" stroke-miterlimit="10"/><path d="M371.39,21.67l1.43-.5c-.71-2.81-1.69-6.47-2.21-7.55,0,0-3.56,.3-7.38,1.43,0,0-.97,3.06,6.13,62.92,0,0-.29,7.71-1.63,8.24-.25,.1-.55,.21-.87,.33,.39,.03,1.39,.09,2.74,.09,.24,0,.47,0,.71,0,.63-1.35,1.18-3.83,1.37-8.56v-.36c-5.23-43.99-6.07-57.09-6.17-60.87,1.36-.33,2.61-.55,3.56-.69,.69,2.25,1.71,6.24,2.39,9.07l.63-.12c-.1-.48-.19-.95-.29-1.45l-.41-1.97Z" fill="#878787" stroke="#878787" stroke-miterlimit="10"/><path d="M324.98,88.8c.58-.34,1.24-.71,1.99-1.12,0,0,5.42-2.42,11.66-4.85,0,0,.18-.12,9.05-3.98,0,0,1.35-1.71,1.74-2.89,0,0,1.67-9.66,2.92-21.91,1.57-15.44,3.07-34.36,6.35-36.06,0,0,.57-.72,4.69-3.49,0,0,3.36-1.31,7.36-1.49,0,0,1.04,.11,1.34,1.77,0,0,.15,.01,1.08,6.26l.13-.04s.62-.22,1.69-.63c.12-.05,.27-.1,.39-.15-.3-2.03-.55-3.57-.74-4.62-.07-.37-.15-.8-.28-1.22-.47-2.66-2.34-3.55-3.37-3.66l-.17-.02h-.17c-4.32,.21-7.94,1.59-8.09,1.65l-.45,.24c-1.75,1.18-3.89,2.68-4.85,3.59-3.36,2.37-4.65,11.98-6.69,32.55-.17,1.72-.34,3.42-.51,5.08-1.12,11.03-2.61,20.05-2.86,21.53-.19,.43-.61,1.1-.99,1.62-5.87,2.56-7.75,3.39-8.43,3.71-6.21,2.42-11.68,4.86-11.74,4.88l-.15,.08c-2,1.08-3.44,1.96-4.47,2.68h.01l3.56,.49Z" fill="#878787" stroke="#878787" stroke-miterlimit="10"/><path d="M369.36,77.98c-7.1-59.86-6.13-62.92-6.13-62.92,3.81-1.14,7.38-1.43,7.38-1.43,.52,1.09,1.5,4.74,2.21,7.55l.35-.12c-.93-6.25-1.08-6.26-1.08-6.26-.29-1.66-1.34-1.77-1.34-1.77-4,.18-7.36,1.49-7.36,1.49-4.12,2.77-4.69,3.49-4.69,3.49-3.28,1.7-4.78,20.62-6.35,36.06-1.25,12.25-2.92,21.91-2.92,21.91-.4,1.17-1.74,2.89-1.74,2.89-8.87,3.86-9.05,3.98-9.05,3.98-6.24,2.43-11.66,4.85-11.66,4.85-.75,.4-1.41,.77-1.99,1.12l.57,.08-2.67,3.21s-.61,.78-.91,1.68l.28-.13,.25-.32s1.16-1.23,5.48-3.56c.68-.3,5.76-2.55,11.47-4.77l.3-.14c.38-.18,2.04-.92,8.83-3.88l.53-.23,.36-.46c.26-.34,1.62-2.1,2.12-3.57l.09-.35c.02-.1,1.7-9.88,2.94-22.07,.17-1.67,.34-3.38,.51-5.1,1.06-10.74,2.66-26.94,4.72-29.21l.32-.17,.24-.3c.06-.06,.23-.21,.56-.47,.45,8.86,2.56,29.44,6.06,59.01-.11,2.51-.45,5.17-.78,6.24-2.95,1.1-8.92,3.01-9.07,3.07-.23,.09-2.08,.78-4.71,1.78,4.98-1.62,9.58-2.79,12.49-2.79,.7,0,1.31,.06,1.85,.18h.03c.32-.12,.61-.23,.87-.33,1.34-.53,1.64-8.24,1.64-8.24Z" fill="#878787" stroke="#878787" stroke-miterlimit="10"/><path d="M368.57,88.36c.47-.18,1.13-.45,1.73-1.74-.23,0-.46,0-.71,0-1.34,0-2.35-.06-2.74-.09-3.1,1.14-8.86,2.99-8.86,2.99,0,0-18.13,6.77-24.6,9.95,0,0-1.85,1.36-4.64,2.51,0,0-.92,.53-3.11-.04,0,0-1.83-.78-4.83-2.67,0,0-1.97-1.31-2.28-3.57,0,0,.3-2.73,2.22-3.9,0,0,.8-1,4.22-3.01l-3.56-.47h-.01c-1.13,.78-1.79,1.35-2.14,1.7-.96,.66-1.62,1.54-2.06,2.4,.11,.02,.22,.03,.34,.05-.64,2.07-.61,4.54,1.45,6.59l.25,.21c.89,.67,5.54,4.02,9.1,4.02,.31,0,.61-.02,.9-.07l.29-.05,.27-.12c4.92-2.22,15.68-6.78,24.42-9.62,2.66-1.02,4.46-1.69,4.49-1.7,.28-.1,7.09-2.29,9.86-3.38Z" fill="#878787" stroke="#878787" stroke-miterlimit="10"/><path d="M364.98,86.36c-2.91,0-7.18,.79-12.17,2.41-5.86,2.24-15.95,6.44-20.44,8.65l-.34,.21s-1.69,1.22-4.16,2.24l-.06,.02c-.11,.02-.52,.09-1.42-.12-.48-.22-2.04-.97-4.28-2.38-.01,0-.96-.68-1.24-1.69,.12-.52,.44-1.52,1.07-1.91h.02c.3-.91,.9-1.68,.91-1.69l2.67-3.21-.57-.08c-3.42,2-4.22,3.01-4.22,3.01-1.92,1.17-2.22,3.9-2.22,3.9,.31,2.26,2.28,3.57,2.28,3.57,3,1.89,4.83,2.67,4.83,2.67,2.19,.57,3.11,.04,3.11,.04,2.79-1.15,4.64-2.51,4.64-2.51,6.47-3.18,24.6-9.95,24.6-9.95,0,0,5.76-1.85,8.86-2.99h-.03c-.54-.13-1.15-.19-1.84-.19Z" fill="#878787" stroke="#878787" stroke-miterlimit="10"/><path d="M373.29,21.01l-.13,.04c.15,1.03,.32,2.22,.52,3.62,0,0-.37-1.55-.87-3.5l-1.43,.5,.39,1.97c.1,.49,.19,.96,.29,1.45l3.9-.74c-.22-1.54-.42-2.91-.6-4.12-.13,.05-.27,.11-.39,.15-1.06,.42-1.66,.63-1.68,.63Z" fill="#878787" stroke="#878787" stroke-miterlimit="10"/><path d="M373.68,24.67c-.2-1.4-.37-2.58-.52-3.62l-.35,.12c.5,1.96,.87,3.5,.87,3.5Z" fill="#878787" stroke="#878787" stroke-miterlimit="10"/></g><g><path d="M375.77,24.24l-3.97,.87c2.93,14.6,5.36,23.94,6.75,29.93l-2.78-30.8Z" fill="#878787" stroke="#878787" stroke-miterlimit="10"/><path d="M389.49,73.8c-2.61,1.21-4.18,1.97-4.23,2l-1.63,.8,.39,1.77c.41,1.88,.17,3.34-.76,4.49-1.86,2.31-6.56,3.66-12.96,3.76-.6,1.29-1.27,1.56-1.73,1.74-2.76,1.09-9.57,3.27-9.86,3.37-.03,0-2.49,.49-5.15,1.51,4.47-1.45,9.07-2.26,11.42-2.26,.51,0,.78,.05,.9,.08l.39,.07s1.37,.12,3.33,.12c5.86,0,13.62-.95,17.27-5.49,1.06-1.32,2.15-3.45,1.94-6.53,5.11-2.42,22.27-10.36,37.47-15,1.18-.36,1.93-1.01,2.25-1.92,.05-.15,.09-.3,.11-.45l-39.15,11.94Z" fill="#878787" stroke="#878787" stroke-miterlimit="10"/></g></g><g><path d="M165.84,153.33v-4.83H448.56v4.83H165.84m36.52-8.23v-19.92l-10.94,19.92h-6.79l-10.87-19.92v19.92h-7.92v-26.71h12.74l9.52,17.51,9.35-17.51h12.75v26.71h-7.84m-36.52-30.1v-4.84H448.56v4.84H165.84"/><path d="M213.45,135.07v-16.68h7.92v16.68c.07,4.15,4.6,3.54,8.83,3.7,4.14-.16,8.67,.45,8.75-3.7v-16.68h7.84v16.68c.39,9.21-4.9,10.41-16.59,10.41s-17.06-1.21-16.75-10.41"/><polyline points="250.11 145.1 250.11 118.39 258.03 118.39 258.03 138.45 275.91 138.45 275.91 145.1 250.11 145.1"/><polyline points="279.09 145.1 279.09 124.87 267.31 124.87 267.31 118.39 298.64 118.39 298.64 124.87 286.94 124.87 286.94 145.1 279.09 145.1"/><polyline points="301.87 145.1 301.87 118.39 309.73 118.39 309.73 145.1 301.87 145.1"/><path d="M312.81,145.1v-26.71h20.46c10.03,0,11.39,4.6,11.46,10.11,.08,5.58-1.43,10.1-11.46,10.1h-12.53v6.5h-7.93m7.92-13.05h12.53c3.24,.08,3.62-2.05,3.54-3.55,.15-1.74,0-3.55-3.54-3.55h-12.53v7.1"/><polyline points="347.98 145.1 347.98 118.39 355.91 118.39 355.91 138.45 373.79 138.45 373.79 145.1 347.98 145.1"/><polyline points="377.02 145.1 377.02 118.39 405.63 118.39 405.63 124.28 384.87 124.28 384.87 128.73 404.42 128.73 404.42 134.24 384.87 134.24 384.87 139.28 406 139.28 406 145.1 377.02 145.1"/><polyline points="437.31 145.1 428.57 135.67 419.81 145.1 408.65 145.1 421.93 131.66 409.7 118.39 420.41 118.39 428.57 127.82 436.78 118.39 447.51 118.39 435.28 131.66 448.56 145.1 437.31 145.1"/><path d="M450.53,115.67c0-1.74,.75-3.4,1.96-4.54,1.13-1.05,2.72-1.65,4.15-1.65,1.8,0,3.46,.82,4.59,2.11,1.06,1.13,1.58,2.57,1.58,4.07,0,3.47-2.72,6.26-6.18,6.26-3.31,.02-6.1-2.77-6.1-6.25m1.96-3.7c-.91,1.07-1.43,2.42-1.43,3.78,0,3.01,2.57,5.58,5.58,5.58s5.65-2.57,5.65-5.58c0-1.58-.75-3.17-1.89-4.23-.97-.91-2.33-1.43-3.76-1.43-1.6,0-3.1,.75-4.15,1.88"/><path d="M458.52,119.07c0-.15-.08-.31-.08-.61v-.59c-.08-.68-.3-1.06-.67-1.36-.16-.08-.46-.15-.76-.24h-1.96v2.8h-.75v-6.79h2.27c.75,0,1.21,.08,1.58,.15,.76,.3,1.22,.91,1.22,1.74,0,.6-.3,1.12-.75,1.43-.24,.15-.53,.22-.91,.3,.38,.08,.67,.22,.97,.53,.39,.38,.53,.75,.53,1.74,0,.59,0,.68,.16,.91h-.85m-3.48-3.48h1.43c.46,0,.6,0,.76-.08,.53-.08,.9-.3,1.06-.53,.14-.23,.23-.54,.23-.75,0-.53-.23-.91-.69-1.13-.23,0-.44-.08-.83-.08-.07-.08-.23-.08-.59-.08h-1.37v2.65"/></g></g><g id="Ebene_5"><g><g><g><path d="M363.87,193.75c1.19,0,2.41,.11,3.61,.32,3.75,.67,7.2,2.35,9.44,4.61,1.11,1.12,2.91,3.4,2.44,6.02-.5,2.82-3.51,5.02-7.6,5.85,.62-.75,1.03-1.58,1.18-2.47,.47-2.63-1.33-4.9-2.44-6.02-2.25-2.27-5.69-3.95-9.44-4.62-1.21-.21-2.42-.32-3.61-.32-1.27,0-2.48,.13-3.62,.36,1.87-2.26,5.63-3.73,10.04-3.73Z" fill="#878787" stroke="#878787" stroke-miterlimit="10" stroke-width="2.63"/><path d="M338.56,201.97c.96-5.4,5.31-9.6,11.36-11.51-2.61,2.14-4.38,4.92-4.95,8.13-.79,4.45,.88,9.15,4.58,12.89,3.4,3.43,8.24,5.85,13.62,6.81,1.66,.29,3.33,.44,4.98,.44,2.7,0,5.24-.41,7.54-1.13-3.45,2.83-8.37,4.52-13.95,4.52-1.65,0-3.32-.15-4.98-.45-5.38-.96-10.21-3.38-13.62-6.81-3.71-3.75-5.38-8.44-4.58-12.89Z" fill="#878787" stroke="#878787" stroke-miterlimit="10" stroke-width="2.63"/></g><g><path d="M275.05,207.96c.74,0,1.49,.04,2.23,.12,3.94,.42,7.63,1.97,10.11,4.25,1.26,1.15,3.32,3.53,2.99,6.54-.38,3.47-3.95,6.34-8.73,7.42,.82-1.01,1.35-2.15,1.48-3.35,.32-3.01-1.73-5.39-2.99-6.54-2.49-2.28-6.17-3.83-10.11-4.25-.74-.08-1.5-.12-2.23-.12-1.44,0-2.83,.16-4.14,.46,2.18-2.7,6.5-4.53,11.39-4.53Z" fill="#878787" stroke="#878787" stroke-miterlimit="10" stroke-width="2.57"/><path d="M246.58,219c.7-6.48,5.62-11.65,12.6-14-2.99,2.62-4.93,6.05-5.35,9.94-.53,4.88,1.54,9.85,5.67,13.63,3.84,3.51,9.12,5.79,14.89,6.41,1.04,.11,2.09,.17,3.13,.17,3.1,0,6-.5,8.62-1.38-3.86,3.39-9.48,5.44-15.87,5.44-1.04,0-2.09-.06-3.13-.17-5.77-.62-11.05-2.9-14.89-6.41-4.13-3.78-6.19-8.75-5.67-13.63Z" fill="#878787" stroke="#878787" stroke-miterlimit="10" stroke-width="2.57"/></g><path d="M266.65,224.35l.14-2.53s-.84-1.98-.87-3.28c-.02-.83,.04-4.57,.09-7.16h-.11l.55-9.84s0-.07,0-.11c.03-.41,.13-1.29,.13-1.29,.43-.96,1.5-1.78,2.88-2.06,1.98-.4,3.82,.45,4.12,1.89,.04,.19,.04,.38,.03,.56h.01l-.63,11.22h-.1c-.13,3.13-.39,7.51-.95,8.67-.89,1.86-1.36,1.88-1.36,1.88l-.23,3.04s-.33,.39-.75,.56c-.68,.27-1.3,.39-2.34-.1-.41-.19-.6-.49-.6-.49v-.96Z" fill="#878787" stroke="#878787" stroke-miterlimit="10" stroke-width="2.57"/><path d="M357.3,209.02s.14,.33,.52,.59c.97,.66,1.62,.65,2.35,.49,.45-.1,.85-.44,.85-.44l.75-3.02s.48,.06,1.69-1.66c.75-1.07,1.77-5.44,2.42-8.58l.1,.02,2.53-11.2h-.01c.05-.19,.07-.37,.07-.57-.05-1.5-1.76-2.67-3.83-2.6-1.44,.05-2.65,.69-3.25,1.58,0,0-.26,.87-.35,1.27-.01,.04-.03,.07-.02,.11l-2.22,9.8,.11,.03c-.48,2.6-1.18,6.36-1.3,7.2-.19,1.31,.32,3.45,.32,3.45l-.57,2.52-.16,1.01Zm2.24-6.37l1.79-17.88,2.09,1.64-3.88,16.24Z" fill="#878787" stroke="#878787" stroke-miterlimit="10" stroke-width="1.31"/><polygon points="363.76 186.32 359.96 202.22 361.71 184.71 363.76 186.32" fill="#878787" stroke="#878787" stroke-miterlimit="10"/><polygon points="268.07 200.02 266.12 216.25 265.85 198.66 268.07 200.02" fill="#878787" stroke="#878787" stroke-miterlimit="10"/><path d="M259.57,176.34l5.63,16.91,80.57-11.7-9.19-15.59-77.01,10.38Zm1.65,.44l71.17-9.16,8.16,14.01-73.92,10.54-5.41-15.39Z" fill="#878787" stroke="#878787" stroke-miterlimit="10" stroke-width="2.57"/><path d="M355.95,249.05c.28,1.46,1.91,2.38,3.65,2.04,1.74-.33,2.92-1.78,2.64-3.24s-1.91-2.37-3.65-2.04c-1.73,.34-2.92,1.79-2.64,3.24Z" fill="#878787" stroke="#878787" stroke-miterlimit="10"/><path d="M345.02,250.26c.28,1.46,1.91,2.38,3.65,2.04,1.74-.33,2.92-1.78,2.64-3.24s-1.91-2.37-3.65-2.04c-1.74,.33-2.92,1.78-2.64,3.24Z" fill="#878787" stroke="#878787" stroke-miterlimit="10"/><path d="M334.04,251.86c.28,1.46,1.91,2.38,3.65,2.04,1.74-.33,2.92-1.78,2.64-3.24s-1.91-2.37-3.65-2.04-2.92,1.78-2.64,3.24Z" fill="#878787" stroke="#878787" stroke-miterlimit="10"/><path d="M326.19,251.61c.06,.32-2.96,2.23-2.78,2.49,.64,.92,1.93,1.42,3.28,1.16,1.74-.33,2.92-1.78,2.64-3.24s-1.91-2.38-3.65-2.04c-1.2,.23-2.13,.99-2.51,1.92-.16,.41,2.93-.75,3.02-.29Z" fill="#878787" stroke="#878787" stroke-miterlimit="10"/><path d="M315.72,253.22c-1.85,2.14-3.78,2.57-3.6,2.84,.64,.92,1.93,1.42,3.28,1.16,1.74-.33,2.92-1.78,2.64-3.24s-1.91-2.38-3.65-2.04c-1.2,.23-2.13,.99-2.51,1.92-.16,.41,5.12-2.11,3.84-.64Z" fill="#878787" stroke="#878787" stroke-miterlimit="10"/><path d="M304.2,255.48c.14,.01,1.63,.59,1,1.06-.8,.61-4.74,1.88-4.63,2.03,.64,.92,1.93,1.42,3.28,1.16,1.74-.33,2.92-1.78,2.64-3.24s-1.91-2.38-3.65-2.04c-1.2,.23-2.13,.99-2.51,1.92-.16,.42,1.68-1.08,3.87-.89Z" fill="#878787" stroke="#878787" stroke-miterlimit="10"/></g><g><path d="M369.72,178.74l1.74-2.03c-5.25-7.62-7.48-8.91-8.35-8.97h-.08l-16.61,.89-6.15-9.86-89.8,11.29,3.65,11.39c-5.76,.92-24.25,6.09-27.1,6.85-6.64,1.79-1.23,12.65,3.27,26.78,2.13,6.7,4.53,14.08,7,21.57l15.12,28.22c-3.02-12.1-6.52-25.38-9.52-34.92-7.02-22.3-11.17-36.54-11.17-36.54-.01-.03-1.24-3.26,.37-4.54,1.34-1.08,13.21-3.44,23.92-5.11l1.49-.23-3.62-11.28,84.97-10.71,6.09,9.76,17.85-.97c.49,.29,2.43,1.79,6.93,8.41Z" fill="#878787" stroke="#878787" stroke-miterlimit="10"/><path d="M411.15,260.71c-.31-.9-6.03-17.1-14.86-37.33l-4.68-4.23c10.02,22.34,16.67,41.17,17.1,42.39,0,.19-.06,1.23-1.41,3.74-1.62,3.03-3.28,3.49-3.29,3.49l-20.99,3.53-.38,2.11-33.95,7.24h12.34l23.83-5.08,.37-2.03,19.28-3.24c.31-.06,2.85-.66,5.07-4.81,1.81-3.4,1.87-5.02,1.57-5.78Z" fill="#878787" stroke="#878787" stroke-miterlimit="10"/></g></g></g><g id="Ebene_6"><g><path d="M492.01,93.97c-6.2-17.91-23.95-30.8-51.33-37.28-12.4-2.93-26.46-4.48-41.75-4.65,33.48,2.43,60.54,13.18,74.83,31.12,4.27,4.11,7.39,8.77,9.18,13.95,1.48,4.28,2.03,8.89,1.69,13.73,1.67,23.79-13.16,50.03-39.36,73.23,3.83-3.11,7.5-6.26,10.97-9.45,31.17-28.63,43.87-57.28,35.77-80.65Z" fill="#f59c00"/><path d="M127.66,232.87c-2.17-4.2-3.67-8.65-4.55-13.29-1.47-5.13-1.65-10.69-.62-16.56,1.96-19.44,12.75-40.94,30.43-61.65-.88,.78-1.75,1.57-2.61,2.35-31.15,28.63-43.85,57.28-35.76,80.65,6.2,17.91,23.95,30.8,51.33,37.28,1.6,.38,3.23,.74,4.89,1.07-20.01-4.78-35.31-14.74-43.11-29.85Z" fill="#f59c00"/></g></g></svg>