<?xml version="1.0" encoding="utf-8"?>
<!-- Generator: Adobe Illustrator 19.2.1, SVG Export Plug-In . SVG Version: 6.00 Build 0)  -->
<svg version="1.1" id="layer" xmlns="http://www.w3.org/2000/svg" xmlns:xlink="http://www.w3.org/1999/xlink" x="0px" y="0px"
	 viewBox="0 0 652 652" style="enable-background:new 0 0 652 652;" xml:space="preserve">
<style type="text/css">
	.st0{fill:#AC162C;}
	.st1{fill:#1C1C1B;}
</style>
<path d="M112.5,259c3.2,2.8,6.7,7.1,9.3,11.5c2.3,3.9,6.7,10.9,4.3,18.1c-1.5,4.7-5.5,4.8-8,4.5c-6-0.8-13.7-7-17.9-17.2
	c-2.1-5.1-3.7-10.4-4.3-15.1c-0.2-2-0.8-6.4,0.3-9c1.2-2.8,5.9,0,7.7,1C107.1,254.6,109.7,256.5,112.5,259"/>
<path d="M172.7,271.3c9.8-1.4,21.2,0.4,30.5,4.7c8.1,3.8,23.5,10,22.2,34.1c-0.8,15.7-10.9,26.4-17.3,32
	c-15.5,13.5-38.6,17.8-55.5,3.2c-8.4-7.2-15.7-16.5-20.1-26.7c-1.8-4.2-5.9-13.8-4.9-23.1c1.1-10.1,14.8-15.2,19.9-17.3
	C156.5,274.3,164.1,272.5,172.7,271.3 M145.6,300.1c0.3,2.4-0.1,4.4,0.5,6.8c0.7,2.7,4,8,5.9,11c11.3,17.9,29.9,19.8,45.4,9.4
	c4.3-2.9,12.8-11.8,12.7-20.5c-0.2-9.3-10.4-13.9-15-16.8c-6.9-4.4-13-7.4-20.1-7.3c-0.7,0.3-1,1.5-1.5,2.1c-10,0.4-20.8-1.1-30,2.1
	C143.5,292.2,145,295.8,145.6,300.1"/>
<path d="M112.7,318.3c2-3.3,4.5-6.5,6.8-8.5c2-1.7,5.7-5.1,7.3,0.5c1,3.7-0.2,9.1-1.2,12.3c-2.2,7.8-6.8,15.9-11.5,18
	c-2.3,1-4.6,1.3-6.3,0.4c-0.7-0.4-2.3-1.2-2.8-3.5c-0.5-2.5,2-7.9,2.9-9.9C109.5,324,111,321.3,112.7,318.3"/>
<path class="st0" d="M203.4,299.6c1.1,4.6,0.1,10.5,0.3,16.3c-6.5,2.1-10.6-5.6-17.6-2.6c0.2-0.9,0.9-1,1.3-1.6
	c-0.9-3-2.8-4-4.4-5.8C189.1,302.3,195.6,299.6,203.4,299.6"/>
<path class="st1" d="M59.9,394.1v-12.8c0-0.7,0.2-1.2,0.5-1.6c0.3-0.3,0.8-0.4,1.5-0.4h8.2v1H62c-0.4,0-0.7,0.1-0.8,0.2
	c-0.1,0.1-0.2,0.4-0.2,0.7v5h6.6v1H61v6.8H59.9z"/>
<path class="st1" d="M79.2,381.6c0-0.7,0.2-1.3,0.5-1.7c0.4-0.4,0.9-0.6,1.7-0.6h6.2c0.7,0,1.2,0.1,1.7,0.3c0.4,0.2,0.8,0.5,1.1,0.9
	c0.3,0.4,0.5,0.8,0.6,1.4c0.1,0.5,0.2,1.1,0.2,1.7c0,0.7-0.1,1.3-0.2,1.8c-0.1,0.5-0.3,1-0.5,1.4c-0.2,0.4-0.6,0.7-1,0.9
	c-0.4,0.2-1,0.3-1.6,0.3h-3.3v0.1l6.9,5.9h-1.7l-6.5-5.6c-0.1-0.1-0.2-0.2-0.3-0.3c-0.1-0.1-0.1-0.2-0.1-0.3v-0.3
	c0-0.3,0.2-0.5,0.5-0.5h4.4c0.5,0,0.9-0.1,1.2-0.3c0.3-0.2,0.5-0.4,0.6-0.7c0.1-0.3,0.2-0.7,0.2-1.1c0-0.4,0.1-0.9,0.1-1.3
	c0-0.5,0-0.9-0.1-1.4c-0.1-0.4-0.2-0.8-0.3-1c-0.2-0.3-0.4-0.5-0.7-0.7c-0.3-0.2-0.8-0.2-1.3-0.2h-6c-0.2,0-0.5,0.1-0.7,0.2
	c-0.2,0.1-0.3,0.4-0.3,0.8v12.8h-1.1V381.6z"/>
<path class="st1" d="M103.2,394.1c-0.7,0-1.2-0.2-1.5-0.4c-0.3-0.3-0.5-0.8-0.5-1.5v-10.8c0-0.7,0.2-1.2,0.5-1.6
	c0.3-0.3,0.8-0.4,1.5-0.4h8.7v1h-8.6c-0.4,0-0.7,0.1-0.8,0.2c-0.1,0.1-0.1,0.4-0.1,0.7v4.8h9.3v1h-9.3v5.1c0,0.3,0.1,0.6,0.1,0.7
	c0.1,0.2,0.4,0.2,0.8,0.2h8.7v1H103.2z"/>
<path class="st1" d="M123.7,394.1c-0.7,0-1.2-0.2-1.5-0.4c-0.3-0.3-0.5-0.8-0.5-1.5v-10.8c0-0.7,0.2-1.2,0.5-1.6
	c0.3-0.3,0.8-0.4,1.5-0.4h8.7v1h-8.6c-0.4,0-0.7,0.1-0.8,0.2c-0.1,0.1-0.2,0.4-0.2,0.7v4.8h9.3v1h-9.3v5.1c0,0.3,0,0.6,0.2,0.7
	c0.1,0.2,0.4,0.2,0.8,0.2h8.7v1H123.7z"/>
<path class="st1" d="M144.2,394.1c-0.7,0-1.2-0.2-1.5-0.4c-0.3-0.3-0.5-0.8-0.5-1.5v-10.8c0-0.7,0.2-1.2,0.5-1.5
	c0.3-0.3,0.8-0.4,1.5-0.4h5c1.1,0,2,0.2,2.8,0.6c0.7,0.4,1.3,0.9,1.8,1.6c0.4,0.7,0.8,1.4,1,2.3c0.2,0.9,0.3,1.8,0.3,2.8
	c0,1-0.1,1.9-0.2,2.9c-0.2,0.9-0.4,1.7-0.9,2.4c-0.4,0.7-1,1.2-1.7,1.6c-0.7,0.4-1.6,0.6-2.7,0.6H144.2z M144.2,380.3
	c-0.4,0-0.6,0.1-0.7,0.3c-0.1,0.2-0.2,0.4-0.2,0.7v10.9c0,0.4,0.1,0.6,0.2,0.8c0.1,0.1,0.4,0.2,0.7,0.2h5c1,0,1.8-0.2,2.4-0.5
	c0.6-0.4,1.1-0.8,1.4-1.4c0.3-0.6,0.5-1.3,0.6-2.1c0.1-0.8,0.1-1.6,0.1-2.4c0-0.8-0.1-1.6-0.2-2.4c-0.1-0.7-0.4-1.4-0.7-2
	c-0.3-0.6-0.8-1-1.5-1.4c-0.6-0.3-1.4-0.5-2.4-0.5H144.2z"/>
<path class="st1" d="M171.7,379.1c1.3,0,2.5,0.1,3.4,0.4c0.9,0.3,1.7,0.7,2.2,1.4c0.6,0.6,1,1.4,1.2,2.3c0.2,0.9,0.4,2.1,0.4,3.4
	c0,1.3-0.1,2.5-0.4,3.4c-0.2,1-0.6,1.7-1.2,2.3c-0.6,0.6-1.3,1.1-2.2,1.3c-0.9,0.3-2,0.4-3.4,0.4c-1.3,0-2.5-0.1-3.4-0.4
	c-0.9-0.3-1.7-0.7-2.2-1.3c-0.6-0.6-1-1.4-1.2-2.3c-0.2-0.9-0.4-2.1-0.4-3.4c0-1.3,0.1-2.5,0.4-3.4c0.2-1,0.7-1.7,1.2-2.3
	c0.6-0.6,1.3-1.1,2.2-1.4C169.3,379.3,170.4,379.1,171.7,379.1 M165.8,386.7c0,1.2,0.1,2.2,0.2,3c0.2,0.8,0.5,1.5,0.9,2
	c0.4,0.5,1,0.9,1.8,1.2c0.8,0.2,1.7,0.4,3,0.4c1.2,0,2.2-0.1,2.9-0.4c0.8-0.2,1.4-0.6,1.8-1.2c0.4-0.5,0.8-1.2,0.9-2
	c0.2-0.8,0.2-1.8,0.2-3c0-1.2-0.1-2.2-0.2-3c-0.2-0.8-0.5-1.5-0.9-2c-0.4-0.5-1-0.9-1.8-1.2c-0.8-0.2-1.8-0.4-2.9-0.4
	c-1.2,0-2.2,0.1-3,0.4c-0.8,0.2-1.4,0.6-1.8,1.2c-0.4,0.5-0.8,1.2-0.9,2C165.9,384.5,165.8,385.5,165.8,386.7"/>
<path class="st1" d="M198.7,392.7c-0.2,0.5-0.4,0.8-0.6,1.1c-0.2,0.3-0.5,0.5-0.9,0.5c-0.4,0-0.7-0.1-0.9-0.5
	c-0.2-0.3-0.4-0.7-0.6-1.1l-5-12.1c-0.1-0.1-0.1-0.2-0.2-0.3c-0.1-0.1-0.2-0.1-0.2-0.1c-0.1,0-0.1,0-0.2,0.1c-0.1,0-0.1,0.2-0.1,0.3
	v13.5h-1.1v-13.6c0-0.4,0.1-0.8,0.4-1c0.2-0.3,0.6-0.4,1-0.4c0.4,0,0.7,0.1,1,0.4c0.2,0.3,0.4,0.6,0.6,1.1l5,12
	c0,0.1,0.1,0.2,0.1,0.3c0,0.1,0.1,0.2,0.2,0.2c0.1,0,0.2-0.1,0.2-0.2c0.1-0.1,0.1-0.2,0.1-0.3l5-12c0.2-0.5,0.4-0.8,0.6-1.1
	c0.2-0.3,0.6-0.4,1-0.4c0.4,0,0.8,0.1,1,0.4c0.3,0.3,0.4,0.6,0.4,1v13.6h-1.1v-13.5c0-0.2,0-0.3-0.1-0.3c-0.1,0-0.1-0.1-0.2-0.1
	c-0.1,0-0.1,0.1-0.2,0.1c-0.1,0.1-0.1,0.2-0.2,0.3L198.7,392.7z"/>
<path class="st1" d="M228.2,394.1v-13c0-0.7,0.1-1.1,0.4-1.4c0.3-0.2,0.7-0.4,1.4-0.4h6.2c0.7,0,1.3,0.1,1.8,0.3
	c0.5,0.2,0.9,0.4,1.2,0.8c0.3,0.3,0.5,0.8,0.7,1.3c0.1,0.5,0.2,1.2,0.2,2c0,0.8-0.1,1.5-0.2,2.1c-0.1,0.6-0.4,1-0.7,1.4
	c-0.3,0.4-0.7,0.6-1.2,0.7c-0.5,0.1-1.1,0.2-1.8,0.2h-6.9v6.1H228.2z M236.2,387c0.6,0,1-0.1,1.4-0.2c0.3-0.1,0.6-0.3,0.8-0.6
	c0.2-0.3,0.3-0.6,0.4-1.1c0.1-0.4,0.1-0.9,0.1-1.5c0-0.5,0-1-0.1-1.4c-0.1-0.4-0.2-0.8-0.4-1c-0.2-0.3-0.5-0.5-0.8-0.6
	c-0.3-0.2-0.8-0.2-1.3-0.2h-6c-0.4,0-0.7,0.1-0.7,0.3c-0.1,0.2-0.1,0.4-0.1,0.6v5.8H236.2z"/>
<path class="st1" d="M256.5,379.1c1.3,0,2.5,0.1,3.4,0.4c0.9,0.3,1.6,0.7,2.2,1.4c0.6,0.6,1,1.4,1.2,2.3c0.2,0.9,0.4,2.1,0.4,3.4
	c0,1.3-0.1,2.5-0.4,3.4c-0.2,1-0.6,1.7-1.2,2.3c-0.6,0.6-1.3,1.1-2.2,1.3c-0.9,0.3-2,0.4-3.4,0.4c-1.3,0-2.5-0.1-3.4-0.4
	c-0.9-0.3-1.7-0.7-2.2-1.3c-0.6-0.6-1-1.4-1.2-2.3c-0.2-0.9-0.4-2.1-0.4-3.4c0-1.3,0.1-2.5,0.4-3.4c0.2-1,0.6-1.7,1.2-2.3
	c0.6-0.6,1.3-1.1,2.2-1.4C254.1,379.3,255.2,379.1,256.5,379.1 M250.6,386.7c0,1.2,0.1,2.2,0.3,3c0.2,0.8,0.5,1.5,0.9,2
	c0.4,0.5,1.1,0.9,1.8,1.2c0.8,0.2,1.8,0.4,2.9,0.4c1.2,0,2.2-0.1,2.9-0.4c0.8-0.2,1.4-0.6,1.8-1.2c0.4-0.5,0.8-1.2,0.9-2
	c0.2-0.8,0.3-1.8,0.3-3c0-1.2-0.1-2.2-0.3-3c-0.2-0.8-0.5-1.5-0.9-2c-0.4-0.5-1.1-0.9-1.8-1.2c-0.8-0.2-1.8-0.4-2.9-0.4
	c-1.2,0-2.2,0.1-2.9,0.4c-0.8,0.2-1.4,0.6-1.8,1.2c-0.4,0.5-0.7,1.2-0.9,2C250.7,384.5,250.6,385.5,250.6,386.7"/>
<path class="st1" d="M280.6,380.6c0-0.1,0.1-0.3,0.2-0.5c0.1-0.1,0.1-0.3,0.3-0.4c0.1-0.2,0.2-0.3,0.4-0.4c0.2-0.1,0.4-0.1,0.6-0.1
	c0.3,0,0.5,0,0.6,0.1c0.2,0.1,0.3,0.2,0.4,0.4c0.1,0.1,0.2,0.3,0.3,0.4c0.1,0.2,0.1,0.3,0.2,0.5l3.2,12.2c0,0.1,0.1,0.2,0.2,0.3
	c0.1,0.1,0.2,0.1,0.2,0.1c0.1,0,0.2-0.1,0.3-0.2c0-0.1,0.1-0.2,0.1-0.3l3.3-13.4h1.2l-3.5,13.7c-0.1,0.5-0.3,0.9-0.6,1
	c-0.3,0.2-0.5,0.2-0.8,0.2c-0.3,0-0.5,0-0.6-0.1c-0.2-0.1-0.3-0.2-0.4-0.3c-0.1-0.1-0.2-0.3-0.3-0.4c-0.1-0.2-0.1-0.3-0.2-0.5
	l-3.2-12.1c0-0.1,0-0.2-0.1-0.3c-0.1-0.1-0.1-0.2-0.2-0.2c-0.1,0-0.2,0.1-0.2,0.2c-0.1,0.1-0.1,0.2-0.1,0.3l-3.2,12.1
	c0,0.2-0.1,0.3-0.2,0.5c-0.1,0.2-0.2,0.3-0.3,0.4c-0.1,0.1-0.3,0.2-0.4,0.3c-0.2,0.1-0.4,0.1-0.6,0.1c-0.3,0-0.6-0.1-0.8-0.2
	c-0.3-0.1-0.5-0.5-0.6-1l-3.5-13.7h1.2l3.3,13.4c0,0.1,0,0.2,0.1,0.3c0,0.1,0.1,0.2,0.3,0.2c0.1,0,0.2,0,0.2-0.1
	c0.1-0.1,0.1-0.2,0.2-0.3L280.6,380.6z"/>
<path class="st1" d="M302.9,394.1c-0.7,0-1.2-0.2-1.5-0.4c-0.3-0.3-0.5-0.8-0.5-1.5v-10.8c0-0.7,0.2-1.2,0.5-1.6
	c0.3-0.3,0.8-0.4,1.5-0.4h8.7v1h-8.7c-0.4,0-0.7,0.1-0.8,0.2c-0.1,0.1-0.2,0.4-0.2,0.7v4.8h9.3v1H302v5.1c0,0.3,0.1,0.6,0.2,0.7
	c0.1,0.2,0.4,0.2,0.8,0.2h8.7v1H302.9z"/>
<path class="st1" d="M321.4,381.6c0-0.7,0.2-1.3,0.5-1.7c0.4-0.4,0.9-0.6,1.7-0.6h6.2c0.7,0,1.2,0.1,1.7,0.3
	c0.4,0.2,0.8,0.5,1.1,0.9c0.3,0.4,0.5,0.8,0.6,1.4c0.1,0.5,0.2,1.1,0.2,1.7c0,0.7-0.1,1.3-0.2,1.8c-0.1,0.5-0.3,1-0.5,1.4
	c-0.2,0.4-0.6,0.7-1,0.9c-0.4,0.2-1,0.3-1.6,0.3h-3.3v0.1l6.9,5.9H332l-6.5-5.6c-0.1-0.1-0.2-0.2-0.3-0.3c-0.1-0.1-0.1-0.2-0.1-0.3
	v-0.3c0-0.3,0.2-0.5,0.5-0.5h4.4c0.5,0,0.9-0.1,1.2-0.3c0.3-0.2,0.5-0.4,0.6-0.7c0.1-0.3,0.2-0.7,0.3-1.1c0-0.4,0.1-0.9,0.1-1.3
	c0-0.5,0-0.9-0.1-1.4c-0.1-0.4-0.2-0.8-0.3-1c-0.2-0.3-0.4-0.5-0.7-0.7c-0.3-0.2-0.8-0.2-1.3-0.2h-6c-0.2,0-0.5,0.1-0.7,0.2
	c-0.2,0.1-0.3,0.4-0.3,0.8v12.8h-1.1V381.6z"/>
<path class="st1" d="M345.4,394.1c-0.7,0-1.2-0.2-1.5-0.4c-0.3-0.3-0.5-0.8-0.5-1.5v-10.8c0-0.7,0.2-1.2,0.5-1.6
	c0.3-0.3,0.8-0.4,1.5-0.4h8.7v1h-8.6c-0.4,0-0.7,0.1-0.8,0.2c-0.1,0.1-0.2,0.4-0.2,0.7v4.8h9.3v1h-9.3v5.1c0,0.3,0.1,0.6,0.2,0.7
	c0.1,0.2,0.4,0.2,0.8,0.2h8.7v1H345.4z"/>
<path class="st1" d="M365.9,394.1c-0.7,0-1.2-0.2-1.5-0.4c-0.3-0.3-0.5-0.8-0.5-1.5v-10.8c0-0.7,0.2-1.2,0.5-1.5
	c0.3-0.3,0.8-0.4,1.5-0.4h5c1.1,0,2,0.2,2.8,0.6c0.7,0.4,1.3,0.9,1.8,1.6c0.4,0.7,0.8,1.4,0.9,2.3c0.2,0.9,0.3,1.8,0.3,2.8
	c0,1-0.1,1.9-0.2,2.9c-0.2,0.9-0.5,1.7-0.9,2.4c-0.4,0.7-1,1.2-1.7,1.6c-0.7,0.4-1.6,0.6-2.7,0.6H365.9z M365.9,380.3
	c-0.4,0-0.6,0.1-0.7,0.3c-0.1,0.2-0.2,0.4-0.2,0.7v10.9c0,0.4,0.1,0.6,0.2,0.8c0.1,0.1,0.4,0.2,0.8,0.2h5c1,0,1.8-0.2,2.4-0.5
	c0.6-0.4,1.1-0.8,1.4-1.4c0.3-0.6,0.5-1.3,0.6-2.1c0.1-0.8,0.1-1.6,0.1-2.4c0-0.8-0.1-1.6-0.2-2.4c-0.1-0.7-0.4-1.4-0.7-2
	c-0.3-0.6-0.8-1-1.5-1.4c-0.6-0.3-1.4-0.5-2.4-0.5H365.9z"/>
<path class="st1" d="M408.7,386.7c0.4,0.1,0.7,0.2,1,0.3c0.3,0.1,0.5,0.3,0.7,0.6c0.2,0.3,0.3,0.6,0.4,1c0.1,0.4,0.1,0.9,0.1,1.5
	c0,0.5,0,1.1-0.1,1.5c-0.1,0.5-0.2,0.9-0.5,1.3c-0.2,0.4-0.5,0.7-0.9,0.9c-0.4,0.2-0.9,0.3-1.5,0.3H401c-0.3,0-0.5,0-0.8-0.1
	c-0.2,0-0.5-0.1-0.7-0.3c-0.2-0.1-0.3-0.3-0.4-0.6c-0.1-0.3-0.2-0.6-0.2-1v-10.9c0-0.5,0.1-1,0.4-1.4c0.3-0.4,0.7-0.6,1.3-0.6h6.8
	c0.6,0,1.1,0.1,1.5,0.3c0.4,0.2,0.7,0.4,1,0.8c0.2,0.4,0.4,0.8,0.5,1.2c0.1,0.5,0.2,1.1,0.2,1.7c0,0.4,0,0.8-0.1,1.2
	c-0.1,0.4-0.2,0.7-0.3,1c-0.1,0.3-0.4,0.5-0.6,0.7C409.4,386.4,409.1,386.5,408.7,386.7L408.7,386.7z M400.1,386.2h6.9
	c0.5,0,0.9-0.1,1.2-0.2c0.3-0.1,0.6-0.3,0.7-0.6c0.2-0.2,0.3-0.6,0.3-0.9c0.1-0.4,0.1-0.8,0.1-1.3c0-0.4,0-0.8-0.1-1.1
	c-0.1-0.3-0.2-0.6-0.3-0.9c-0.2-0.2-0.4-0.5-0.6-0.6c-0.3-0.2-0.6-0.2-1.1-0.2h-6.4c-0.3,0-0.5,0.1-0.6,0.2
	c-0.1,0.1-0.2,0.3-0.2,0.7V386.2z M400.1,392c0,0.4,0,0.7,0.1,0.9c0.1,0.2,0.3,0.3,0.8,0.3h6.3c0.5,0,0.8-0.1,1.1-0.2
	c0.3-0.1,0.5-0.3,0.7-0.6c0.2-0.2,0.3-0.5,0.3-0.9c0.1-0.4,0.1-0.8,0.1-1.3c0-0.4,0-0.8-0.1-1.1c0-0.4-0.1-0.7-0.3-0.9
	c-0.1-0.3-0.4-0.5-0.6-0.7c-0.3-0.2-0.7-0.2-1.1-0.2h-7.4V392z"/>
<polygon class="st1" points="431.3,379.3 432.6,379.3 426.4,389.2 426.4,394.1 425.3,394.1 425.3,389.2 419.2,379.3 420.4,379.3 
	425.9,388.2 "/>
<polygon class="st1" points="458.2,394.1 458.2,380.3 452.1,380.3 452.1,379.3 465.6,379.3 465.6,380.3 459.4,380.3 459.4,394.1 "/>
<polygon class="st1" points="486.3,394.1 485.2,394.1 485.2,387.1 475.6,387.1 475.6,394.1 474.5,394.1 474.5,379.3 475.6,379.3 
	475.6,386.1 485.2,386.1 485.2,379.3 486.3,379.3 "/>
<path class="st1" d="M498.7,394.1c-0.7,0-1.2-0.2-1.5-0.4c-0.3-0.3-0.5-0.8-0.5-1.5v-10.8c0-0.7,0.2-1.2,0.5-1.6
	c0.3-0.3,0.8-0.4,1.5-0.4h8.7v1h-8.6c-0.4,0-0.7,0.1-0.8,0.2c-0.1,0.1-0.1,0.4-0.1,0.7v4.8h9.3v1h-9.3v5.1c0,0.3,0.1,0.6,0.1,0.7
	c0.1,0.2,0.4,0.2,0.8,0.2h8.7v1H498.7z"/>
<path class="st1" d="M529.1,393.1h8.3c0.2,0,0.4,0,0.6-0.1c0.2-0.1,0.4-0.2,0.6-0.4c0.2-0.2,0.3-0.4,0.4-0.8
	c0.1-0.3,0.2-0.7,0.2-1.3c0-0.2,0-0.5-0.1-0.7c0-0.2-0.1-0.5-0.2-0.7c-0.1-0.2-0.3-0.4-0.6-0.6c-0.2-0.2-0.6-0.3-1-0.5l-5.9-2
	c-0.4-0.1-0.7-0.3-1.1-0.5c-0.3-0.2-0.6-0.4-0.8-0.7c-0.2-0.3-0.4-0.6-0.5-0.9c-0.1-0.4-0.2-0.8-0.2-1.4c0-1.1,0.3-1.9,0.8-2.5
	c0.5-0.6,1.4-0.9,2.6-0.9h7.5v1h-7.5c-0.8,0-1.3,0.2-1.6,0.5c-0.3,0.4-0.5,0.9-0.5,1.8c0,0.2,0,0.5,0,0.7c0,0.2,0.1,0.4,0.2,0.7
	c0.1,0.2,0.2,0.4,0.4,0.5c0.2,0.2,0.5,0.3,0.8,0.5l5.7,2c0.4,0.2,0.8,0.3,1.2,0.5c0.4,0.2,0.7,0.4,1,0.6c0.3,0.3,0.5,0.6,0.6,1
	c0.1,0.4,0.2,0.9,0.2,1.5c0,0.4-0.1,0.9-0.1,1.3c-0.1,0.4-0.3,0.8-0.5,1.1c-0.2,0.3-0.5,0.6-0.9,0.8c-0.4,0.2-0.9,0.3-1.4,0.3h-8.3
	V393.1z"/>
<path class="st1" d="M556,393.3c0.9,0,1.7-0.1,2.3-0.2c0.6-0.1,1.1-0.4,1.5-0.7c0.4-0.3,0.6-0.8,0.8-1.3c0.2-0.5,0.2-1.2,0.2-2v-9.8
	h1.1v10.2c0,0.9-0.1,1.7-0.4,2.3c-0.3,0.6-0.7,1.1-1.2,1.5c-0.5,0.4-1.1,0.6-1.9,0.8c-0.7,0.2-1.5,0.2-2.4,0.2
	c-0.9,0-1.7-0.1-2.4-0.2c-0.7-0.2-1.4-0.4-1.9-0.8c-0.5-0.4-0.9-0.9-1.2-1.5c-0.3-0.6-0.4-1.4-0.4-2.3v-10.2h1.1v9.8
	c0,0.8,0.1,1.5,0.2,2c0.2,0.5,0.4,1,0.8,1.3c0.4,0.3,0.9,0.6,1.5,0.7C554.4,393.2,555.1,393.3,556,393.3"/>
<path class="st1" d="M584.8,392.6c0,0.5-0.1,0.9-0.3,1.2c-0.2,0.3-0.6,0.4-1,0.4c-0.3,0-0.6-0.1-0.8-0.3c-0.2-0.2-0.4-0.4-0.7-0.8
	l-7.7-12.5c0-0.1-0.1-0.1-0.2-0.2c-0.1-0.1-0.2-0.1-0.3-0.1c0,0-0.1,0-0.2,0.1c-0.1,0-0.1,0.2-0.1,0.4v13.3h-1.1v-13.5
	c0-0.4,0.1-0.6,0.2-0.8c0.1-0.2,0.3-0.4,0.4-0.4c0.2-0.1,0.3-0.2,0.5-0.2c0.1,0,0.3,0,0.3,0c0.4,0,0.7,0.1,0.9,0.3
	c0.2,0.2,0.4,0.4,0.5,0.7l7.8,12.6c0.1,0.1,0.1,0.2,0.2,0.3c0.1,0.1,0.2,0.1,0.3,0.1c0.1,0,0.2,0,0.2-0.1c0-0.1,0-0.2,0-0.2v-13.4
	h1.1V392.6z"/>
<path class="st1" d="M22.3,330.3H63c1.7,0,2.9-0.2,3.4-0.7c0.5-0.5,0.7-1,0.7-1.6c0-1.2-0.5-2-1.5-2.5c-1-0.5-2.1-0.9-3.3-1.2
	l-28.4-8c-2.2-0.6-3.9-1.4-5.2-2.5c-1.3-1.1-2.4-2.1-3.2-3.1c-1.7-2.3-2.8-4.9-3.3-7.9c-0.4-2.9-0.7-5.7-0.7-8.5
	c0-2.3,0.2-4.8,0.7-7.4c0.5-2.6,1.8-5.1,3.9-7.2c1.2-1.2,2.8-2.3,4.8-3.2c2-0.9,4.6-1.4,7.8-1.4h48.5v18.2H49.9
	c-1.4,0-2.3,0-2.8,0.1c-0.5,0.1-0.8,0.2-1.1,0.3c-0.8,0.4-1.1,1.1-1.1,2c0,1.2,0.7,2.1,2,2.6c1.4,0.5,2.7,1,4.1,1.4l24.8,6.6
	c1.6,0.4,3.4,1.1,5.3,1.9c1.9,0.8,3.5,1.9,4.9,3.3c1.1,1.1,2,2.4,2.7,3.8c0.7,1.4,1.2,2.9,1.5,4.4c0.3,1.5,0.5,3,0.6,4.5
	c0.1,1.5,0.2,2.8,0.2,4.1c0,2.2-0.2,4.6-0.5,7.2c-0.4,2.7-1.4,5.1-3,7.3c-1,1.4-2.2,2.5-3.4,3.2c-1.2,0.8-2.4,1.3-3.7,1.7
	c-1.3,0.3-2.6,0.5-3.9,0.6c-1.3,0.1-2.6,0.1-3.8,0.1H22.3V330.3z"/>
<path class="st1" d="M246.8,348.5c-1.4,0-2.8-0.2-4.3-0.5c-1.5-0.3-2.7-0.9-3.7-1.8c-0.9-0.7-1.6-1.7-2.3-2.9c-0.7-1.3-1-2.7-1-4.2
	v-64h23.7v50.6c0,0.4,0,1,0.1,1.7c0.1,0.7,0.4,1.4,1,1.8c0.5,0.4,1.1,0.7,1.8,0.8c0.7,0.1,1.4,0.1,2,0.1h38.1v18.2H246.8z"/>
<path class="st1" d="M313.8,286.9c0-3.6,0.8-6.3,2.5-8.2c0.9-1.1,2.1-1.9,3.6-2.6c1.5-0.7,3.1-1,4.7-1h39.8c1.3,0,2.7,0,4.2,0.2
	c1.4,0.1,2.9,0.3,4.2,0.6c1.4,0.3,2.7,0.8,4,1.4c1.3,0.6,2.5,1.5,3.5,2.6c1.1,1,1.9,2.2,2.5,3.6c0.6,1.3,1.1,2.7,1.4,4.1
	c0.3,1.4,0.5,2.8,0.6,4.2c0.1,1.4,0.2,2.7,0.2,3.9c0,2-0.2,4-0.6,5.9c-0.4,1.9-1.4,3.7-3.1,5.6c-2,2.2-4.5,3.5-7.3,3.7v0.4
	c1.9,0.1,3.6,0.6,5,1.3c1.5,0.7,2.7,1.6,3.7,2.5c2,1.9,3.1,4,3.5,6.2c0.4,2.3,0.5,4.5,0.5,6.8c0,1.2,0,2.4-0.1,3.7
	c0,1.3-0.2,2.6-0.5,3.9c-0.3,1.3-0.7,2.7-1.3,4c-0.6,1.3-1.4,2.6-2.6,3.8c-1.2,1.2-2.4,2.2-3.7,2.9c-1.3,0.7-2.6,1.2-3.9,1.5
	c-1.4,0.3-2.8,0.5-4.3,0.6c-1.5,0.1-3,0.1-4.6,0.1h-38.4h-2.6c-0.9,0-1.9-0.1-2.8-0.3c-1-0.2-1.9-0.6-2.8-1
	c-0.9-0.5-1.8-1.2-2.6-2.1c-0.9-1-1.6-2.3-2-3.8c-0.5-1.5-0.7-2.9-0.7-4.4V286.9z M355.2,303.3c1,0,2-0.1,3.1-0.3
	c1.1-0.2,1.9-0.8,2.6-1.7c0.3-0.5,0.5-1.1,0.6-1.7c0.1-0.6,0.2-1.2,0.2-1.7c0-0.7-0.1-1.3-0.3-1.8c-0.2-0.5-0.5-1-0.8-1.3
	c-0.8-0.8-1.7-1.2-2.7-1.3c-1-0.1-1.9-0.2-2.7-0.2h-13.5c-0.6,0-1.1,0-1.6,0.1c-0.5,0.1-1,0.3-1.5,0.7c-0.6,0.5-0.9,1-0.9,1.5
	c0,0.5-0.1,1.1-0.1,1.6v6H355.2z M337.6,324.8c0,1.3,0.1,2.2,0.2,2.9c0.1,0.7,0.3,1.2,0.6,1.5c0.5,0.6,1.2,0.9,2.1,1
	c0.9,0,1.7,0.1,2.3,0.1h12.6c2.2,0,3.8-0.2,4.7-0.5c0.9-0.4,1.4-0.7,1.6-0.9c0.4-0.4,0.7-1.1,0.9-1.9c0.3-0.8,0.4-1.6,0.4-2.4
	c0-1.3-0.3-2.3-0.9-3.2c-0.8-1-1.7-1.7-2.9-1.8c-1.2-0.2-2.2-0.3-3.2-0.3h-18.4V324.8z"/>
<rect x="402.5" y="275.1" class="st1" width="23.7" height="73.4"/>
<path class="st1" d="M467.1,283.2c0.6-1.3,1.2-2.5,2-3.7c0.8-1.1,1.8-2.1,3-2.8c1.3-0.8,2.8-1.4,4.7-1.8c1.8-0.4,4.2-0.6,7.1-0.6
	c1.7,0,3.4,0.1,5.1,0.2c1.6,0.2,3.2,0.6,4.6,1.2c1.4,0.6,2.8,1.5,4,2.7c1.2,1.2,2.3,2.8,3.1,4.8l27.2,65.3h-24.9l-5.8-15.1h-26.4
	l-5.8,15.1h-25L467.1,283.2z M476.3,316.6h15.1l-6.6-18.6c-0.1-0.3-0.3-0.6-0.5-1c-0.2-0.4-0.3-0.6-0.5-0.6c-0.1,0-0.3,0.2-0.5,0.6
	c-0.2,0.4-0.3,0.7-0.5,1L476.3,316.6z"/>
<path class="st1" d="M621.6,336.2c0,0.6-0.1,1.7-0.3,3.1c-0.2,1.5-0.8,2.9-1.9,4.4c-1.1,1.5-2.6,2.8-4.8,3.9c-2.1,1.1-5.1,1.7-9,1.7
	c-1.4,0-2.8-0.1-4.2-0.2c-1.4-0.1-2.8-0.4-4.1-0.9c-1.4-0.5-2.7-1.2-4-2.2c-1.3-1-2.5-2.3-3.6-3.9l-26.5-37.4
	c-0.3-0.3-0.6-0.7-1-1.2c-0.3-0.4-0.7-0.6-1-0.6c-0.1,0-0.4,0.1-0.8,0.3c-0.4,0.2-0.6,0.8-0.6,1.8v43.5h-18.2v-61.2
	c0-2.4,0.5-4.4,1.4-6c0.9-1.6,2.1-3,3.7-4c1.5-1.1,3.3-1.8,5.3-2.2c2-0.5,4.1-0.7,6.1-0.7c1,0,2.1,0,3.5,0.2
	c1.3,0.1,2.7,0.4,4.1,0.8c1.4,0.4,2.8,1.1,4.2,2c1.4,0.9,2.7,2.2,3.8,3.8l26.7,37.8c0.3,0.3,0.6,0.7,0.9,1.1
	c0.3,0.4,0.7,0.7,1.1,0.7c0.5,0,0.9-0.2,1-0.7c0.1-0.4,0.2-0.8,0.2-1.1v-43.7h18.2V336.2z"/>
</svg>
