<svg xmlns="http://www.w3.org/2000/svg" viewBox="0 0 156 32.27"><title>logo</title><path d="M308.7,412.45l-.32-.61-.44-.55-.56-.47-.64-.37-.71-.27-.78-.16-.84-.06h-9.63l-.88.06-.85.16-.82.27-.78.37-.74.47-.68.55-.56.61-.45.65-.33.71-.21.75-1.08,5.34-.09.79,0,.71.18.65.31.58.46.54.55.46.63.37.71.26.79.15.86,0h9.63l.87,0,.84-.15L304,424l.79-.37.75-.46.66-.54.56-.59.44-.66.34-.71.22-.76,1.09-5.34.09-.75-.05-.71ZM300,422.16h-5.08a3.44,3.44,0,0,1-3.32-4.35l.74-2.73a3.44,3.44,0,0,1,3.32-2.54h5a3.44,3.44,0,0,1,3.34,4.27l-.67,2.73a3.44,3.44,0,0,1-3.34,2.62" transform="translate(-219.98 -404.15)" fill="#040000"/><path d="M350.88,412.45l-.32-.61-.44-.55-.56-.47-.64-.37-.71-.27-.78-.16-.84-.06H337l-.88.06-.85.16-.82.27-.78.37-.74.47-.68.55-.56.61-.45.65-.33.71-.21.75-1.08,5.34-.09.79,0,.71.18.65.31.58.46.54.55.46.63.37.71.26.79.15.86,0h9.63l.87,0,.84-.15.81-.26.79-.37.75-.46.66-.54.56-.59.44-.66.34-.71.22-.76,1.09-5.34.09-.75-.05-.71Zm-8.37,9.71h-5.08a3.44,3.44,0,0,1-3.32-4.35l.74-2.73a3.44,3.44,0,0,1,3.32-2.54h5a3.44,3.44,0,0,1,3.34,4.27l-.67,2.73a3.44,3.44,0,0,1-3.34,2.62" transform="translate(-219.98 -404.15)" fill="#040000"/><path d="M373.15,412.42l-.24-.61-.36-.58-.46-.48-.47-.32-.54-.23-.68-.17-.83-.06H353.64l-2.93,14.5h3.83l2.16-10.88a1.27,1.27,0,0,1,1.25-1l10.87.06H369l.16,0,.13,0,.1.07.1.08.08.12.06.16,0,.24v.4l-.33,1.86-.16.47-.14.25-.13.18-.13.12-.12.09-.13.07-.14,0-.16,0h-6.53a1.28,1.28,0,0,0-1,2l4.11,5.52H370l-3.86-4.73h1.46l.79,0,.76-.16.64-.23.6-.31.64-.45.61-.57.5-.6.42-.64.34-.69.25-.75.17-.77.06-.74,0-.7Z" transform="translate(-219.98 -404.15)" fill="#040000"/><path d="M376,429.38V404.15H220v25.24H376ZM242.42,412.59h-6l-3.05,11.86h-6l.23-.64.08-.22.09-.22.08-.17L228,423l.08-.17.08-.17.08-.18.09-.18.08-.18.09-.19.09-.18.09-.18.1-.19.1-.19.1-.2.1-.19.1-.2.11-.2.11-.2.11-.2.11-.2.12-.2.12-.21.12-.21.13-.2.13-.21.13-.21.14-.21.14-.21.14-.21.14-.21.15-.21.15-.21.15-.2.16-.21.16-.2.17-.21.18-.2.18-.21.18-.2.18-.2.19-.2.2-.2.2-.2.2-.2.21-.2.21-.19.22-.19.22-.19.22-.19.23-.18.23-.18.24-.18.24-.18.25-.18.25-.17.26-.17.26-.16.27-.16.27-.16.28-.16.29-.15.29-.15.3-.15.3-.14.31-.14.32-.13.32-.13.32-.13.34-.12.34-.12.35-.11.35-.11.35-.1.37-.1.37-.09.38-.09.38-.08h-.09l-.2,0-.2,0-.2,0-.2,0-.2,0-.21,0-.2,0-.2,0-.2,0-.21,0-.2,0-.2,0-.2,0-.2,0-.2,0-.2.05-.2,0-.2.06-.2.05-.2.06-.2.06-.2.06-.19.06-.2.06-.19.07-.19.07-.19.07-.19.07-.19.08-.19.07-.19.08-.19.07-.19.08-.18.08-.19.08-.18.08-.18.09-.18.08-.18.09-.18.09-.18.09-.18.09-.17.09-.18.1-.17.09-.17.1-.16.1-.17.1-.16.1-.16.1-.16.11-.16.11-.16.11-.16.11-.15.11-.15.11-.15.11-.15.11-.15.12-.14.11-.14.12-.14.12-.14.12-.14.12-.13.12-.13.12-.13.13-.12.12-.13.13-.12.12-.12.12-.12.13-.11.13-.12.13-.11.13-.11.12-.1.13-.1.13-.1.13-.09.14,1-4.27h-6l.93-2.63h17.88Zm4.87-7.65h127.9v23.64H247.29Z" transform="translate(-219.98 -404.15)" fill="#040000"/><polygon points="90.16 8.47 90.64 5.82 109.94 5.82 109.46 8.47 102.38 8.47 99.64 20.31 94.5 20.31 97.23 8.47 90.16 8.47" fill="#040000"/><polygon points="29.55 13.72 29.9 11.68 41.3 11.68 40.96 13.72 29.55 13.72" fill="#040000"/><path d="M282.77,410l-8,10.87L269.92,410h-4L263,424.46h3.82l1.54-8.82a.31.31,0,0,1,.6-.07l3.95,8.89h2.61l6.56-9a.31.31,0,0,1,.56.25l-1.8,8.74h3.45l2.93-14.5Z" transform="translate(-219.98 -404.15)" fill="#040000"/><path d="M245.78,434a1.17,1.17,0,0,0-.42-.14,5.53,5.53,0,0,0-.79,0H243a2,2,0,0,1-1-.16.67.67,0,0,1-.24-.6.65.65,0,0,1,.24-.59,1.89,1.89,0,0,1,.94-.16h1.53a1.7,1.7,0,0,1,.9.15.7.7,0,0,1,.21.6v.07h.53V433a1.69,1.69,0,0,0-.07-.54.78.78,0,0,0-.23-.35,1.15,1.15,0,0,0-.52-.22,7.2,7.2,0,0,0-1.17-.06h-1a2.9,2.9,0,0,0-1.51.28,1.08,1.08,0,0,0-.41,1,1.13,1.13,0,0,0,.36,1,2.13,2.13,0,0,0,1.26.28h1.89a1.35,1.35,0,0,1,.79.16.72.72,0,0,1,.19.58.76.76,0,0,1-.28.69,2.52,2.52,0,0,1-1.19.18H243a2.22,2.22,0,0,1-1-.17.63.63,0,0,1-.28-.59s0-.09,0-.18v-.09h-.54a.45.45,0,0,0,0,.05c0,.13,0,.23,0,.28a1,1,0,0,0,.38.9,2.29,2.29,0,0,0,1.29.27h1.52a2.58,2.58,0,0,0,1.45-.29,1.21,1.21,0,0,0,.4-1,2,2,0,0,0-.1-.71.76.76,0,0,0-.33-.38" transform="translate(-219.98 -404.15)" fill="#040000"/><path d="M249.77,431.89l-2.6,4.48h.63l.57-1h3.56l.59,1h.59l-2.6-4.48Zm-1.12,3,1.5-2.57,1.52,2.57Z" transform="translate(-219.98 -404.15)" fill="#040000"/><polygon points="13.13 32.22 17.53 32.22 17.53 31.72 13.67 31.72 13.67 30.14 17.37 30.14 17.37 29.65 13.67 29.65 13.67 28.24 17.53 28.24 17.53 27.74 13.13 27.74 13.13 32.22" fill="#040000"/><polygon points="0 28.24 2.22 28.24 2.22 32.22 2.77 32.22 2.77 28.24 4.99 28.24 4.99 27.74 0 27.74 0 28.24" fill="#040000"/><polygon points="10.88 29.67 6.83 29.67 6.83 27.74 6.27 27.74 6.27 32.22 6.83 32.22 6.83 30.16 10.88 30.16 10.88 32.22 11.44 32.22 11.44 27.74 10.88 27.74 10.88 29.67" fill="#040000"/><path d="M279.06,432.12a2.86,2.86,0,0,0-1.41-.23h-3.11v4.48h.56V434.6h2.56a2.9,2.9,0,0,0,1.41-.23.92.92,0,0,0,.34-.83V433a.93.93,0,0,0-.34-.84m-.25,1.22a.72.72,0,0,1-.2.61,1.49,1.49,0,0,1-.8.14h-2.71v-1.72h2.71a1.49,1.49,0,0,1,.8.14.72.72,0,0,1,.2.61Z" transform="translate(-219.98 -404.15)" fill="#040000"/><polygon points="88.01 27.74 87.45 27.74 87.45 32.22 91.49 32.22 91.49 31.73 88.01 31.73 88.01 27.74" fill="#040000"/><path d="M299,432.12a2.86,2.86,0,0,0-1.41-.23h-3.11v4.48H295V434.6h2.56a2.9,2.9,0,0,0,1.41-.23.93.93,0,0,0,.34-.83V433a.93.93,0,0,0-.34-.84m-.25,1.22a.72.72,0,0,1-.2.61,1.49,1.49,0,0,1-.8.14H295v-1.72h2.71a1.49,1.49,0,0,1,.8.14.72.72,0,0,1,.2.61Z" transform="translate(-219.98 -404.15)" fill="#040000"/><path d="M305.22,434.64v.15a2.63,2.63,0,0,1,0,.52.73.73,0,0,1-.12.28.68.68,0,0,1-.34.25,1.88,1.88,0,0,1-.61.08h-1.84a1.88,1.88,0,0,1-.61-.08.66.66,0,0,1-.34-.25.77.77,0,0,1-.12-.28,2.63,2.63,0,0,1,0-.52v-2.9h-.57v2.9a2.74,2.74,0,0,0,.1.82,1.06,1.06,0,0,0,.32.5,1.17,1.17,0,0,0,.52.24,4.86,4.86,0,0,0,1,.07h1.37a4.89,4.89,0,0,0,1-.07,1.1,1.1,0,0,0,.51-.24,1.08,1.08,0,0,0,.31-.51,2.93,2.93,0,0,0,.1-.84v-2.87h-.57Z" transform="translate(-219.98 -404.15)" fill="#040000"/><polygon points="126.88 29.84 124.83 27.74 124.05 27.74 126.58 30.35 126.58 32.22 127.17 32.22 127.17 30.35 129.72 27.74 128.92 27.74 126.88 29.84" fill="#040000"/><path d="M317.26,434a1.17,1.17,0,0,0-.42-.14,5.52,5.52,0,0,0-.79,0h-1.61a2,2,0,0,1-1-.16.68.68,0,0,1-.24-.6.65.65,0,0,1,.24-.59,1.89,1.89,0,0,1,.94-.16h1.53a1.7,1.7,0,0,1,.9.15.7.7,0,0,1,.21.6v.07h.53V433a1.69,1.69,0,0,0-.07-.54.78.78,0,0,0-.23-.35,1.14,1.14,0,0,0-.52-.22,7.21,7.21,0,0,0-1.17-.06h-1a2.9,2.9,0,0,0-1.51.28,1.08,1.08,0,0,0-.41,1,1.13,1.13,0,0,0,.36,1,2.13,2.13,0,0,0,1.26.28h1.89a1.35,1.35,0,0,1,.79.16.72.72,0,0,1,.19.58.76.76,0,0,1-.28.69,2.52,2.52,0,0,1-1.19.18h-1.17a2.22,2.22,0,0,1-1-.17.63.63,0,0,1-.28-.59s0-.09,0-.18v-.09h-.54a.25.25,0,0,0,0,.05c0,.13,0,.23,0,.28a1,1,0,0,0,.38.9,2.29,2.29,0,0,0,1.29.27h1.52a2.58,2.58,0,0,0,1.45-.29,1.21,1.21,0,0,0,.4-1,2,2,0,0,0-.1-.71.75.75,0,0,0-.33-.38" transform="translate(-219.98 -404.15)" fill="#040000"/><path d="M326.59,432.15a1.32,1.32,0,0,0-.56-.24,5.7,5.7,0,0,0-1.06-.07h-1.49a5.69,5.69,0,0,0-1.06.07,1.32,1.32,0,0,0-.56.24,1,1,0,0,0-.34.52,3,3,0,0,0-.11.89v1.22a2.61,2.61,0,0,0,.11.82,1.07,1.07,0,0,0,.35.51,1.3,1.3,0,0,0,.56.24,5.78,5.78,0,0,0,1.06.07H325a5.8,5.8,0,0,0,1.07-.07,1.28,1.28,0,0,0,.56-.24,1,1,0,0,0,.34-.51,2.72,2.72,0,0,0,.11-.85V433.5a2.72,2.72,0,0,0-.11-.85,1,1,0,0,0-.34-.51m-.15,2.47v.15a2.52,2.52,0,0,1,0,.52.78.78,0,0,1-.13.29.72.72,0,0,1-.37.25,2.3,2.3,0,0,1-.67.07h-2a2.3,2.3,0,0,1-.67-.07.72.72,0,0,1-.37-.25.78.78,0,0,1-.14-.3,2.93,2.93,0,0,1,0-.58v-1.18a2.93,2.93,0,0,1,0-.58.78.78,0,0,1,.14-.3.73.73,0,0,1,.37-.25,2.3,2.3,0,0,1,.67-.07h2a2.3,2.3,0,0,1,.67.07.73.73,0,0,1,.37.25.78.78,0,0,1,.13.29,2.51,2.51,0,0,1,0,.52Z" transform="translate(-219.98 -404.15)" fill="#040000"/><path d="M292.43,432.15a1.33,1.33,0,0,0-.56-.24,5.7,5.7,0,0,0-1.06-.07h-1.5a5.7,5.7,0,0,0-1.06.07,1.32,1.32,0,0,0-.56.24,1,1,0,0,0-.34.52,3,3,0,0,0-.11.89v1.22a2.61,2.61,0,0,0,.11.82,1.06,1.06,0,0,0,.35.51,1.31,1.31,0,0,0,.56.24,5.78,5.78,0,0,0,1.06.07h1.49a5.8,5.8,0,0,0,1.07-.07,1.28,1.28,0,0,0,.56-.24,1,1,0,0,0,.34-.51,2.72,2.72,0,0,0,.11-.85V433.5a2.72,2.72,0,0,0-.11-.85,1,1,0,0,0-.34-.51m-.15,2.47v.15a2.49,2.49,0,0,1,0,.52.78.78,0,0,1-.13.29.72.72,0,0,1-.37.25,2.3,2.3,0,0,1-.67.07h-2a2.29,2.29,0,0,1-.67-.07.72.72,0,0,1-.37-.25.78.78,0,0,1-.14-.3,2.93,2.93,0,0,1,0-.58v-1.18a2.93,2.93,0,0,1,0-.58.78.78,0,0,1,.14-.3.73.73,0,0,1,.37-.25,2.29,2.29,0,0,1,.67-.07h2a2.3,2.3,0,0,1,.67.07.72.72,0,0,1,.37.25.78.78,0,0,1,.13.29,2.48,2.48,0,0,1,0,.52Z" transform="translate(-219.98 -404.15)" fill="#040000"/><polygon points="34.25 32.22 34.81 32.22 34.81 30.16 38.34 30.16 38.34 29.67 34.81 29.67 34.81 28.24 38.48 28.24 38.48 27.74 34.25 27.74 34.25 32.22" fill="#040000"/><rect x="99.23" y="27.74" width="0.56" height="4.48" fill="#040000"/><path d="M342.62,434a1.18,1.18,0,0,0-.42-.14,5.53,5.53,0,0,0-.79,0H339.8a2,2,0,0,1-1-.16.68.68,0,0,1-.24-.6.65.65,0,0,1,.24-.59,1.89,1.89,0,0,1,.94-.16h1.53a1.7,1.7,0,0,1,.9.15.7.7,0,0,1,.21.6v.07h.53V433a1.68,1.68,0,0,0-.07-.54.77.77,0,0,0-.23-.35,1.15,1.15,0,0,0-.52-.22,7.22,7.22,0,0,0-1.17-.06h-1a2.9,2.9,0,0,0-1.51.28,1.08,1.08,0,0,0-.41,1,1.13,1.13,0,0,0,.36,1,2.13,2.13,0,0,0,1.26.28h1.89a1.35,1.35,0,0,1,.79.16.72.72,0,0,1,.19.58.76.76,0,0,1-.28.69,2.52,2.52,0,0,1-1.19.18h-1.17a2.22,2.22,0,0,1-1-.17.63.63,0,0,1-.28-.59s0-.09,0-.18v-.09H338a.37.37,0,0,0,0,.05c0,.13,0,.23,0,.28a1,1,0,0,0,.38.9,2.29,2.29,0,0,0,1.29.27h1.52a2.58,2.58,0,0,0,1.45-.29,1.21,1.21,0,0,0,.4-1,2,2,0,0,0-.1-.71.76.76,0,0,0-.33-.38" transform="translate(-219.98 -404.15)" fill="#040000"/><polygon points="143.18 32.22 147.59 32.22 147.59 31.72 143.72 31.72 143.72 30.14 147.42 30.14 147.42 29.65 143.72 29.65 143.72 28.24 147.59 28.24 147.59 27.74 143.18 27.74 143.18 32.22" fill="#040000"/><path d="M270.29,432.11a2.92,2.92,0,0,0-1.42-.23h-3.19v4.48h.56v-1.76h2.71a1.59,1.59,0,0,1,.89.16.76.76,0,0,1,.19.6v1h.56v-1.11a.92.92,0,0,0-.19-.61.8.8,0,0,0-.55-.26,1.13,1.13,0,0,0,.62-.29.89.89,0,0,0,.17-.61V433a.93.93,0,0,0-.35-.84m-.24,1.23a.73.73,0,0,1-.2.6,1.45,1.45,0,0,1-.8.15h-2.82v-1.72h2.82a1.44,1.44,0,0,1,.8.15.73.73,0,0,1,.2.6Z" transform="translate(-219.98 -404.15)" fill="#040000"/><polygon points="152.48 31.63 149.79 27.74 148.99 27.74 148.99 32.22 149.53 32.22 149.53 28.28 152.29 32.22 152.71 32.22 155.46 28.28 155.46 32.22 156 32.22 156 27.74 155.17 27.74 152.48 31.63" fill="#040000"/><polygon points="39.88 32.22 44.29 32.22 44.29 31.72 40.42 31.72 40.42 30.14 44.12 30.14 44.12 29.65 40.42 29.65 40.42 28.24 44.29 28.24 44.29 27.74 39.88 27.74 39.88 32.22" fill="#040000"/><polygon points="136.9 28.24 139.12 28.24 139.12 32.22 139.67 32.22 139.67 28.24 141.89 28.24 141.89 27.74 136.9 27.74 136.9 28.24" fill="#040000"/><path d="M285.43,432.11a2.92,2.92,0,0,0-1.42-.23h-3.19v4.48h.56v-1.76h2.71a1.59,1.59,0,0,1,.89.16.76.76,0,0,1,.19.6v1h.56v-1.11a.92.92,0,0,0-.19-.61.8.8,0,0,0-.55-.26,1.13,1.13,0,0,0,.62-.29.89.89,0,0,0,.17-.61V433a.93.93,0,0,0-.35-.84m-.24,1.23a.73.73,0,0,1-.2.6,1.45,1.45,0,0,1-.8.15h-2.82v-1.72h2.82a1.44,1.44,0,0,1,.8.15.73.73,0,0,1,.2.6Z" transform="translate(-219.98 -404.15)" fill="#040000"/><path d="M355.34,434a1.18,1.18,0,0,0-.42-.14,5.52,5.52,0,0,0-.79,0h-1.61a2,2,0,0,1-1-.16.67.67,0,0,1-.24-.6.65.65,0,0,1,.24-.59,1.89,1.89,0,0,1,.94-.16H354a1.7,1.7,0,0,1,.9.15.7.7,0,0,1,.21.6v.07h.53V433a1.69,1.69,0,0,0-.07-.54.78.78,0,0,0-.23-.35,1.15,1.15,0,0,0-.52-.22,7.21,7.21,0,0,0-1.17-.06h-1a2.9,2.9,0,0,0-1.51.28,1.08,1.08,0,0,0-.41,1,1.13,1.13,0,0,0,.36,1,2.13,2.13,0,0,0,1.26.28h1.89a1.35,1.35,0,0,1,.79.16.72.72,0,0,1,.19.58.76.76,0,0,1-.28.69,2.52,2.52,0,0,1-1.19.18h-1.17a2.22,2.22,0,0,1-1-.17.63.63,0,0,1-.28-.59s0-.09,0-.18,0-.07,0-.09h-.54a.31.31,0,0,0,0,.05c0,.13,0,.23,0,.28a1,1,0,0,0,.38.9,2.29,2.29,0,0,0,1.29.27h1.52a2.58,2.58,0,0,0,1.45-.29,1.21,1.21,0,0,0,.4-1,2,2,0,0,0-.1-.71.76.76,0,0,0-.33-.38" transform="translate(-219.98 -404.15)" fill="#040000"/><polygon points="113.56 31.71 109.51 27.74 108.63 27.74 108.63 32.22 109.19 32.22 109.19 28.19 113.3 32.22 114.11 32.22 114.11 27.74 113.56 27.74 113.56 31.71" fill="#040000"/></svg>