<?xml version="1.0" encoding="UTF-8"?> <svg xmlns="http://www.w3.org/2000/svg" xmlns:xlink="http://www.w3.org/1999/xlink" version="1.1" id="Livello_1" x="0px" y="0px" viewBox="0 0 237 91" style="enable-background:new 0 0 237 91;" xml:space="preserve"> <style type="text/css"> .st0{fill:#FFCC00;} .st1{fill:#FFCD1C;} .st2{fill:#FFFFFF;} </style> <g> <polygon class="st0" points="28.1,30.2 20.4,50.7 12.5,30.2 1.1,30.2 14.3,58.7 26.1,58.7 39.1,30.2 "></polygon> <rect x="41.3" y="30.2" class="st0" width="10.8" height="28.5"></rect> <polygon class="st0" points="58,30.2 68.2,30.2 81.3,45.9 81.3,30.2 91.6,30.2 91.6,58.7 81.3,58.7 68.3,43.1 68.3,58.7 58,58.7 "></polygon> <polygon class="st0" points="97,30.2 107.7,30.2 107.7,40.9 119.1,30.2 133.5,30.2 120.7,40.9 134.1,58.8 120.7,58.8 113.4,47.1 107.7,51.8 107.7,58.8 97,58.8 "></polygon> <path class="st1" d="M175.4,64.2l14.6-14.9l14.6,14.9l-14.6,14.9L175.4,64.2z M155.9,44.4l14.6-14.9l14.6,14.9l-14.6,14.9 L155.9,44.4z M195,44.4l14.6-14.9l14.6,14.9l-14.6,14.9L195,44.4z M205,24.7l-14.6,14.9l-14.6-14.9l-4.8-4.9l-4.8,4.9l-14.6,14.9 l-4.8,4.9l4.8,4.9l14.6,14.9l4.8,4.9L185.6,84l4.8,4.9l4.8-4.9l14.6-14.9l4.8-4.9l14.6-14.9l4.9-4.9l-4.9-4.9l-14.6-14.9l-4.8-4.9 L205,24.7z"></path> <polygon class="st1" points="190.1,0 172.9,17.4 190.1,34.7 207.2,17.4 "></polygon> <g> <path class="st2" d="M126.4,73.8c0,0.8,0.2,1.4,0.5,2c0.3,0.6,0.8,1.1,1.4,1.4c0.6,0.3,1.3,0.5,2,0.5c0.9,0,1.7-0.2,2.4-0.7 c0.7-0.5,1.1-1.1,1.3-2H132c-0.2,0.3-0.4,0.6-0.7,0.7c-0.3,0.2-0.6,0.3-1,0.3c-0.6,0-1.1-0.2-1.4-0.6c-0.4-0.4-0.5-0.9-0.5-1.6 c0-0.7,0.2-1.2,0.5-1.6c0.4-0.4,0.8-0.6,1.4-0.6c0.4,0,0.7,0.1,1,0.3c0.3,0.2,0.5,0.4,0.7,0.7h2.1c-0.2-0.8-0.7-1.5-1.3-2 c-0.7-0.5-1.4-0.7-2.4-0.7c-0.8,0-1.4,0.2-2,0.5c-0.6,0.3-1.1,0.8-1.4,1.4C126.6,72.4,126.4,73,126.4,73.8 M123.5,77.7h1.9v-7.8 h-1.9V77.7z M116.5,69.9v1.5h2.1v6.3h1.9v-6.3h2.1v-1.5H116.5z M113,77.8c0.6,0,1.1-0.1,1.5-0.3c0.4-0.2,0.8-0.5,1-0.9 c0.2-0.4,0.3-0.8,0.3-1.2c0-0.5-0.1-0.8-0.3-1.1c-0.2-0.3-0.5-0.5-0.8-0.7c-0.3-0.2-0.7-0.3-1.2-0.5c-0.5-0.2-0.9-0.3-1.1-0.5 c-0.2-0.1-0.4-0.3-0.4-0.6c0-0.2,0.1-0.4,0.2-0.5c0.1-0.1,0.3-0.2,0.6-0.2c0.3,0,0.5,0.1,0.7,0.2c0.2,0.1,0.3,0.3,0.3,0.6h2 c0-0.7-0.3-1.3-0.8-1.7c-0.5-0.4-1.2-0.6-2.1-0.6c-0.8,0-1.5,0.2-2,0.6c-0.5,0.4-0.8,1-0.8,1.7c0,0.5,0.1,0.9,0.3,1.2 c0.2,0.3,0.5,0.5,0.8,0.7c0.3,0.2,0.7,0.3,1.2,0.5c0.3,0.1,0.6,0.2,0.8,0.3c0.2,0.1,0.3,0.2,0.5,0.3c0.1,0.1,0.2,0.3,0.2,0.5 c0,0.2-0.1,0.4-0.2,0.5c-0.2,0.1-0.4,0.2-0.7,0.2c-0.3,0-0.5-0.1-0.7-0.2s-0.3-0.4-0.3-0.7h-2c0,0.5,0.2,0.9,0.4,1.3 c0.3,0.4,0.6,0.6,1.1,0.8C111.9,77.7,112.4,77.8,113,77.8 M104.4,74.9l1-2.8l1,2.8H104.4z M107.3,77.7h2l-2.8-7.8h-2.2l-2.8,7.8h2 l0.5-1.4h2.9L107.3,77.7z M98.6,69.9h-1.9v7.8h4.4v-1.5h-2.5V69.9z M92.7,73.4h-1v-1.9h1c0.4,0,0.6,0.1,0.8,0.3 c0.2,0.2,0.3,0.4,0.3,0.7s-0.1,0.5-0.3,0.7C93.4,73.3,93.1,73.4,92.7,73.4 M95.7,72.4c0-0.5-0.1-0.9-0.3-1.3 c-0.2-0.4-0.5-0.7-1-0.9s-1-0.3-1.6-0.3h-3.1v7.8h1.9v-2.8h1.2c0.6,0,1.2-0.1,1.6-0.3c0.4-0.2,0.7-0.5,1-0.9 C95.6,73.3,95.7,72.9,95.7,72.4 M82.2,71.5h1.2c0.3,0,0.6,0.1,0.8,0.3c0.2,0.2,0.3,0.4,0.3,0.7c0,0.3-0.1,0.5-0.3,0.7 c-0.2,0.2-0.4,0.3-0.8,0.3h-1.2V71.5z M86.4,77.7l-1.8-3.1c0.6-0.2,1-0.5,1.3-0.9c0.3-0.4,0.4-0.9,0.4-1.4c0-0.5-0.1-0.9-0.3-1.2 c-0.2-0.4-0.5-0.7-1-0.9c-0.4-0.2-1-0.3-1.6-0.3h-3.2v7.8h1.9v-2.9h0.5l1.6,2.9H86.4z M75.2,76.1c-0.6,0-1.1-0.2-1.5-0.6 c-0.4-0.4-0.6-1-0.6-1.6c0-0.7,0.2-1.2,0.6-1.6c0.4-0.4,0.9-0.6,1.5-0.6c0.6,0,1.1,0.2,1.5,0.6c0.4,0.4,0.6,1,0.6,1.6 c0,0.7-0.2,1.2-0.6,1.6C76.4,75.8,75.9,76.1,75.2,76.1 M75.2,77.8c0.7,0,1.4-0.2,2-0.5c0.6-0.3,1.1-0.8,1.4-1.4 c0.4-0.6,0.5-1.3,0.5-2.1s-0.2-1.4-0.5-2c-0.3-0.6-0.8-1.1-1.4-1.4c-0.6-0.3-1.3-0.5-2-0.5c-0.7,0-1.4,0.2-2,0.5 c-0.6,0.3-1.1,0.8-1.5,1.4c-0.4,0.6-0.5,1.3-0.5,2s0.2,1.4,0.5,2.1c0.4,0.6,0.8,1.1,1.5,1.4C73.8,77.6,74.5,77.8,75.2,77.8 M65.5,69.9v7.8h1.9v-3.1h2.4v-1.5h-2.4v-1.6h3.2v-1.5H65.5z M61.8,69.9h-1.9v4.8l-3.2-4.8h-1.9v7.8h1.9v-4.8l3.2,4.8h1.9V69.9z M49.8,76.1c-0.6,0-1.1-0.2-1.5-0.6c-0.4-0.4-0.6-1-0.6-1.6c0-0.7,0.2-1.2,0.6-1.6c0.4-0.4,0.9-0.6,1.5-0.6c0.6,0,1.1,0.2,1.5,0.6 c0.4,0.4,0.6,1,0.6,1.6c0,0.7-0.2,1.2-0.6,1.6C50.9,75.8,50.4,76.1,49.8,76.1 M49.8,77.8c0.7,0,1.4-0.2,2-0.5 c0.6-0.3,1.1-0.8,1.4-1.4c0.4-0.6,0.5-1.3,0.5-2.1s-0.2-1.4-0.5-2c-0.4-0.6-0.8-1.1-1.4-1.4c-0.6-0.3-1.3-0.5-2-0.5 c-0.7,0-1.4,0.2-2,0.5c-0.6,0.3-1.1,0.8-1.5,1.4c-0.4,0.6-0.5,1.3-0.5,2s0.2,1.4,0.5,2.1c0.4,0.6,0.8,1.1,1.5,1.4 C48.4,77.6,49.1,77.8,49.8,77.8 M42.9,77.7h1.9v-7.8h-1.9V77.7z M38.9,77.8c0.6,0,1.1-0.1,1.5-0.3c0.4-0.2,0.8-0.5,1-0.9 s0.3-0.8,0.3-1.2c0-0.5-0.1-0.8-0.3-1.1c-0.2-0.3-0.5-0.5-0.8-0.7c-0.3-0.2-0.7-0.3-1.2-0.5c-0.5-0.2-0.9-0.3-1.1-0.5 s-0.4-0.3-0.4-0.6c0-0.2,0.1-0.4,0.2-0.5s0.3-0.2,0.6-0.2c0.3,0,0.5,0.1,0.7,0.2c0.2,0.1,0.3,0.3,0.3,0.6h2c0-0.7-0.3-1.3-0.8-1.7 c-0.5-0.4-1.2-0.6-2.1-0.6c-0.8,0-1.5,0.2-2,0.6c-0.5,0.4-0.8,1-0.8,1.7c0,0.5,0.1,0.9,0.3,1.2c0.2,0.3,0.5,0.5,0.8,0.7 c0.3,0.2,0.7,0.3,1.2,0.5c0.3,0.1,0.6,0.2,0.8,0.3c0.2,0.1,0.3,0.2,0.5,0.3c0.1,0.1,0.2,0.3,0.2,0.5c0,0.2-0.1,0.4-0.2,0.5 c-0.2,0.1-0.4,0.2-0.7,0.2c-0.3,0-0.5-0.1-0.7-0.2c-0.2-0.2-0.3-0.4-0.3-0.7h-2c0,0.5,0.2,0.9,0.4,1.3c0.3,0.4,0.6,0.6,1.1,0.8 C37.8,77.7,38.3,77.8,38.9,77.8 M32.1,77.8c0.6,0,1.1-0.1,1.5-0.3c0.4-0.2,0.8-0.5,1-0.9s0.3-0.8,0.3-1.2c0-0.5-0.1-0.8-0.3-1.1 c-0.2-0.3-0.5-0.5-0.8-0.7c-0.3-0.2-0.7-0.3-1.2-0.5c-0.5-0.2-0.9-0.3-1.1-0.5c-0.2-0.1-0.4-0.3-0.4-0.6c0-0.2,0.1-0.4,0.2-0.5 c0.1-0.1,0.3-0.2,0.6-0.2c0.3,0,0.5,0.1,0.7,0.2c0.2,0.1,0.3,0.3,0.3,0.6h2c0-0.7-0.3-1.3-0.8-1.7c-0.5-0.4-1.2-0.6-2.1-0.6 c-0.8,0-1.5,0.2-2,0.6c-0.5,0.4-0.8,1-0.8,1.7c0,0.5,0.1,0.9,0.3,1.2c0.2,0.3,0.5,0.5,0.8,0.7c0.3,0.2,0.7,0.3,1.2,0.5 c0.3,0.1,0.6,0.2,0.8,0.3c0.2,0.1,0.3,0.2,0.5,0.3c0.1,0.1,0.2,0.3,0.2,0.5c0,0.2-0.1,0.4-0.2,0.5c-0.2,0.1-0.4,0.2-0.7,0.2 c-0.3,0-0.5-0.1-0.7-0.2s-0.3-0.4-0.3-0.7h-2c0,0.5,0.2,0.9,0.4,1.3c0.3,0.4,0.6,0.6,1.1,0.8C31,77.7,31.5,77.8,32.1,77.8 M23.5,74.9l1-2.8l1,2.8H23.5z M26.4,77.7h2l-2.8-7.8h-2.2l-2.8,7.8h2l0.5-1.4h2.9L26.4,77.7z M17.1,73.4h-1v-1.9h1 c0.4,0,0.6,0.1,0.8,0.3s0.3,0.4,0.3,0.7s-0.1,0.5-0.3,0.7C17.8,73.3,17.5,73.4,17.1,73.4 M20.1,72.4c0-0.5-0.1-0.9-0.3-1.3 c-0.2-0.4-0.5-0.7-1-0.9c-0.4-0.2-1-0.3-1.6-0.3h-3.1v7.8h1.9v-2.8h1.2c0.6,0,1.2-0.1,1.6-0.3c0.4-0.2,0.7-0.5,1-0.9 C20,73.3,20.1,72.9,20.1,72.4"></path> </g> </g> </svg> 